<?xml version="1.0" encoding="utf-8"?>
<!-- Generator: Adobe Illustrator 19.0.0, SVG Export Plug-In . SVG Version: 6.00 Build 0)  -->
<svg version="1.1" id="Capa_1" xmlns="http://www.w3.org/2000/svg" xmlns:xlink="http://www.w3.org/1999/xlink" x="0px" y="0px"
	 viewBox="0 0 105 78" style="enable-background:new 0 0 105 78;" xml:space="preserve">
<style type="text/css">
	.st0{fill:#3FB498;}
	.st1{fill:#C7D64F;}
</style>
<g id="XMLID_52_">
	<path id="XMLID_53_" class="st0" d="M39.3,71.1h-4.6l-2.8-2.5c-6.5,4.3-15.1,3.5-19.7-1.6c-2.5-2.8-4.3-6.4-4.3-10.6
		c0-4.1,1.7-7.8,4.3-10.6c2.7-2.7,6.4-4.4,10.5-4.4c4.1,0,7.8,1.7,10.6,4.4c2.6,2.7,4.3,6.4,4.3,10.6c0,3.5-1.2,6.6-3.2,9.1l4.8,4.5
		V71.1z M30.2,48.9c-1.9-2-4.6-3.2-7.5-3.2c-2.9,0-5.6,1.2-7.5,3.2c-1.9,1.9-3.1,4.6-3.1,7.6s1.3,5.7,3.1,7.6
		c3.6,3.6,9,4.3,13.4,1.6l-8.1-7.2h5.8l5,4.5c1.3-1.8,2-4.2,2-6.5C33.4,53.5,32.1,50.8,30.2,48.9z"/>
	<path id="XMLID_56_" class="st0" d="M40.4,62.3V41.9h4.3v20.4c0,3.2,3.5,4.8,6.6,4.8c3,0,6.5-1.6,6.5-4.8V41.9h4.3v20.4
		c0,5.9-5.8,9-10.8,9C46,71.4,40.4,68.3,40.4,62.3z"/>
	<path id="XMLID_58_" class="st0" d="M68.9,66.9h13.6v4.2H64.7V41.9h17.8v4.2H68.9v8.2h13.2v4.3H68.9V66.9z M71.3,40.6l3-4.5H80
		l-4.7,4.5H71.3z"/>
	<path id="XMLID_61_" class="st0" d="M94.9,65h-4.3v-3.4c0-3.8,2.4-4.9,5-6.2h0c1.5-0.8,3.1-1.7,3.2-4.2c0.1-2.6-2.1-5.2-6.1-5.2
		c-2.9,0-5,1.7-6.4,4.5l-3.4-2c1.8-3.8,5-6.8,9.8-6.8c6.8,0,10.7,4.6,10.6,9.6c-0.1,5-3.3,6.5-5.9,7.9c-1.3,0.7-2.6,1.3-2.6,2.5
		L94.9,65z M95.4,69c0,1.3-1.1,2.7-2.8,2.7c-1.5,0-2.6-1.4-2.6-2.7c0-1.6,1.2-2.8,2.6-2.8C94.3,66.2,95.4,67.4,95.4,69z"/>
</g>
<g id="XMLID_40_">
	<path id="XMLID_41_" class="st1" d="M13,15h3.6v2.9c0,3.2-2.1,4.2-4.3,5.3h0C11,24,9.7,24.7,9.6,26.8c-0.1,2.2,1.8,4.4,5.2,4.4
		c2.5,0,4.3-1.5,5.4-3.8l2.9,1.7c-1.5,3.3-4.3,5.8-8.4,5.8c-5.8,0-9.1-3.9-9-8.2c0.1-4.2,2.8-5.5,5-6.7c1.1-0.6,2.2-1.1,2.2-2.1
		L13,15z M14.8,14c1.2,0,2.2-1,2.2-2.3c0-1.1-1-2.3-2.2-2.3c-1.4,0-2.3,1.2-2.3,2.3C12.5,13,13.4,14,14.8,14z"/>
	<path id="XMLID_44_" class="st1" d="M33.6,9.6c5.4,0,8.1,4.2,8.1,8.3c0,4.2-2.7,8.3-8.1,8.3h-5.5v8.3h-3.6V9.6H33.6z M33.6,22.6
		c3,0,4.5-2.3,4.5-4.7c0-2.4-1.5-4.7-4.5-4.7h-5.5v9.4H33.6z"/>
	<path id="XMLID_47_" class="st1" d="M46.3,13c2.3-2.3,5.5-3.8,9-3.8c3.5,0,6.7,1.5,9,3.8c2.2,2.3,3.7,5.5,3.7,9s-1.5,6.7-3.7,9
		c-2.3,2.3-5.5,3.8-9,3.8c-3.5,0-6.7-1.4-9-3.8c-2.2-2.3-3.7-5.5-3.7-9S44.1,15.4,46.3,13z M61.7,15.6c-1.7-1.7-4-2.7-6.4-2.7
		s-4.7,1-6.4,2.7c-1.6,1.6-2.7,3.9-2.7,6.4s1,4.8,2.7,6.4c1.6,1.7,3.9,2.7,6.4,2.7s4.8-1,6.4-2.7c1.6-1.6,2.6-3.9,2.6-6.4
		S63.3,17.2,61.7,15.6z"/>
	<path id="XMLID_50_" class="st1" d="M75.1,21.9h4.2c3,0,4.5-2.2,4.5-4.3c0-2.1-1.5-4.3-4.5-4.3h-5.5v21.3h-3.6V9.6h9.1
		c5.4,0,8.1,4,8.1,7.9c0,3.5-2.2,6.9-6.4,7.6l7.9,9.4h-4.7l-9.1-10.9V21.9z"/>
</g>
</svg>
