<?xml version="1.0" encoding="utf-8"?>
<!-- Generator: Adobe Illustrator 19.0.0, SVG Export Plug-In . SVG Version: 6.00 Build 0)  -->
<svg version="1.1" id="Capa_1" xmlns="http://www.w3.org/2000/svg" xmlns:xlink="http://www.w3.org/1999/xlink" x="0px" y="0px"
	 viewBox="0 0 93 69" style="enable-background:new 0 0 93 69;" xml:space="preserve">
<style type="text/css">
	.st0{fill:#1F61AC;}
	.st1{fill-rule:evenodd;clip-rule:evenodd;fill:#FFFFFF;}
</style>
<rect class="st0" width="93" height="69"/>
<g>
	<path class="st1" d="M71.4,33.9c0,13.4-11,24.3-24.5,24.3c-4.3,0-8.3-1.1-11.8-3l-13.6,4.3l4.4-13c-2.2-3.7-3.5-8-3.5-12.6
		c0-13.4,11-24.3,24.5-24.3C60.5,9.6,71.4,20.4,71.4,33.9L71.4,33.9z M47,13.4c-11.4,0-20.6,9.2-20.6,20.4c0,4.5,1.5,8.6,3.9,12
		l-2.6,7.6l7.9-2.5c3.3,2.1,7.1,3.4,11.3,3.4c11.4,0,20.6-9.2,20.6-20.4C67.5,22.6,58.3,13.4,47,13.4L47,13.4z M59.3,39.5
		c-0.2-0.2-0.6-0.4-1.2-0.7c-0.6-0.3-3.6-1.7-4.1-1.9c-0.5-0.2-1-0.3-1.4,0.3c-0.4,0.6-1.6,1.9-1.9,2.3c-0.3,0.4-0.7,0.4-1.3,0.1
		c-0.6-0.3-2.5-0.9-4.8-3c-1.8-1.6-3-3.5-3.3-4.1c-0.3-0.6,0-0.9,0.3-1.2c0.3-0.3,0.6-0.7,0.9-1c0.3-0.3,0.4-0.6,0.6-1
		c0.2-0.4,0.1-0.7-0.1-1c-0.1-0.3-1.4-3.2-1.9-4.4c-0.5-1.2-1-1-1.4-1c-0.3,0-0.7,0-1.2,0c-0.4,0-1.1,0.1-1.6,0.7
		c-0.5,0.6-2.1,2-2.1,5c0,2.9,2.1,5.8,2.4,6.2c0.3,0.4,4.2,6.6,10.3,9c6.1,2.4,6.1,1.6,7.2,1.5c1.1-0.1,3.6-1.4,4.1-2.8
		C59.5,40.9,59.5,39.7,59.3,39.5L59.3,39.5z M59.3,39.5"/>
</g>
</svg>
