<?xml version="1.0" encoding="utf-8"?>
<!-- Generator: Adobe Illustrator 20.1.0, SVG Export Plug-In . SVG Version: 6.00 Build 0)  -->
<svg version="1.1" id="Capa_1" xmlns="http://www.w3.org/2000/svg" xmlns:xlink="http://www.w3.org/1999/xlink" x="0px" y="0px"
	 viewBox="0 0 243 244.2" style="enable-background:new 0 0 243 244.2;" xml:space="preserve">
<style type="text/css">
	.st0{fill:#FFFFFF;}
	.st1{fill:#0069B4;}
	.st2{fill:url(#XMLID_16_);}
	.st3{fill:url(#XMLID_17_);}
	.st4{fill:url(#XMLID_18_);}
	.st5{fill:url(#XMLID_19_);}
	.st6{fill:url(#XMLID_20_);}
	.st7{fill:url(#XMLID_23_);}
	.st8{fill:url(#XMLID_24_);}
	.st9{fill:url(#XMLID_26_);}
	.st10{fill:url(#XMLID_27_);}
	.st11{fill:url(#XMLID_28_);}
	.st12{fill:url(#XMLID_31_);}
	.st13{fill:url(#XMLID_32_);}
	.st14{fill:url(#XMLID_33_);}
	.st15{fill:url(#XMLID_34_);}
	.st16{fill:url(#XMLID_35_);}
	.st17{fill:url(#XMLID_36_);}
	.st18{fill:url(#XMLID_37_);}
	.st19{fill:url(#XMLID_38_);}
	.st20{fill:#FCEA10;}
	.st21{fill:#2D9CBF;}
	.st22{fill:url(#XMLID_39_);}
	.st23{fill:url(#XMLID_40_);}
	.st24{fill:url(#XMLID_41_);}
	.st25{fill:url(#XMLID_42_);}
	.st26{fill:url(#XMLID_43_);}
	.st27{fill:url(#XMLID_45_);}
	.st28{fill:url(#XMLID_47_);}
	.st29{fill:url(#XMLID_69_);}
</style>
<g>
	<circle id="XMLID_2_" class="st0" cx="121.5" cy="122.1" r="121.5"/>
	<g id="XMLID_3_">
		<linearGradient id="XMLID_16_" gradientUnits="userSpaceOnUse" x1="86.7715" y1="87.5992" x2="172.9391" y2="87.5992">
			<stop  offset="0" style="stop-color:#FFED00"/>
			<stop  offset="0.3116" style="stop-color:#3FB498"/>
			<stop  offset="0.75" style="stop-color:#009ACB"/>
			<stop  offset="1" style="stop-color:#0069B4"/>
		</linearGradient>
		<path id="XMLID_6_" class="st2" d="M169.5,48.1c-4.6-4.6-12.1-4.7-16.8-0.2l-41.3,39.6c-0.9-0.1-1.7-0.2-2.6-0.2
			c-12.2,0-22,9.7-22,21.6s9.9,21.6,22,21.6s22-9.7,22-21.6c0-2.2-0.4-4.4-1-6.4l39.6-37.9C174.1,60.1,174.1,52.7,169.5,48.1z"/>
		<path id="XMLID_159_" class="st0" d="M167.1,50.3c-3.9-3.9-9.4-3.3-13.4,0.6l-42,40.5c-0.7-0.1-2.2-0.9-2.9-0.9
			c-10.2,0-18.5,8.3-18.5,18.5s8.3,18.5,18.5,18.5s18.5-8.3,18.5-18.5c0-1.9-0.7-4.8-1.2-6.6l40.5-39
			C170.5,59.5,171,54.3,167.1,50.3z"/>
		<linearGradient id="XMLID_17_" gradientUnits="userSpaceOnUse" x1="100.6712" y1="93.6386" x2="147.3344" y2="93.6386">
			<stop  offset="0" style="stop-color:#FFED00"/>
			<stop  offset="0.3688" style="stop-color:#3FB498"/>
			<stop  offset="0.9401" style="stop-color:#009ACB"/>
		</linearGradient>
		<path id="XMLID_153_" class="st3" d="M141.2,70l-31.5,31.3c-0.3,0-0.6-0.1-1-0.1c-4.5,0-8.1,3.6-8.1,8.1c0,4.5,3.6,8.1,8.1,8.1
			s8.1-3.6,8.1-8.1c0-0.8-0.1-1.7-0.4-2.4l30.9-30.6"/>
		<path id="XMLID_5_" class="st20" d="M80.1,50.4h5.6c0,0,1.1-0.1,1.1,1c0,1-1.1,1.1-1.1,1.1h-5.6"/>
		<path id="XMLID_4_" class="st21" d="M126.3,50.4h-5.6c0,0-1.1-0.1-1.1,1c0,1,1.1,1.1,1.1,1.1h5.6"/>
		<linearGradient id="XMLID_18_" gradientUnits="userSpaceOnUse" x1="102.6296" y1="72.8158" x2="104.6819" y2="72.8158">
			<stop  offset="0" style="stop-color:#FFED00"/>
			<stop  offset="1.663957e-02" style="stop-color:#F4E600"/>
			<stop  offset="4.715024e-02" style="stop-color:#D6DB42"/>
			<stop  offset="8.150044e-02" style="stop-color:#B7D161"/>
			<stop  offset="0.1194" style="stop-color:#9BC875"/>
			<stop  offset="0.1623" style="stop-color:#80C184"/>
			<stop  offset="0.2124" style="stop-color:#67BB8D"/>
			<stop  offset="0.2743" style="stop-color:#52B794"/>
			<stop  offset="0.3611" style="stop-color:#44B597"/>
			<stop  offset="0.6022" style="stop-color:#3FB498"/>
			<stop  offset="0.9269" style="stop-color:#009ACB"/>
		</linearGradient>
		<path id="XMLID_8_" class="st4" d="M104.7,76.2v-5.6c0,0,0.1-1.1-1-1.1c-1,0-1.1,1.1-1.1,1.1v5.6"/>
		<linearGradient id="XMLID_19_" gradientUnits="userSpaceOnUse" x1="102.6296" y1="32.2591" x2="104.6819" y2="32.2591">
			<stop  offset="0" style="stop-color:#FFED00"/>
			<stop  offset="1.663957e-02" style="stop-color:#F4E600"/>
			<stop  offset="4.715024e-02" style="stop-color:#D6DB42"/>
			<stop  offset="8.150044e-02" style="stop-color:#B7D161"/>
			<stop  offset="0.1194" style="stop-color:#9BC875"/>
			<stop  offset="0.1623" style="stop-color:#80C184"/>
			<stop  offset="0.2124" style="stop-color:#67BB8D"/>
			<stop  offset="0.2743" style="stop-color:#52B794"/>
			<stop  offset="0.3611" style="stop-color:#44B597"/>
			<stop  offset="0.6022" style="stop-color:#3FB498"/>
			<stop  offset="0.9269" style="stop-color:#009ACB"/>
		</linearGradient>
		<path id="XMLID_9_" class="st5" d="M102.6,28.9v5.6c0,0-0.1,1.1,1,1.1c1,0,1.1-1.1,1.1-1.1v-5.6"/>
		<linearGradient id="XMLID_20_" gradientUnits="userSpaceOnUse" x1="91.5158" y1="52.8917" x2="115.7957" y2="52.8917">
			<stop  offset="0" style="stop-color:#FFED00"/>
			<stop  offset="0.5182" style="stop-color:#3FB498"/>
			<stop  offset="1" style="stop-color:#009ACB"/>
		</linearGradient>
		<path id="XMLID_1_" class="st6" d="M91.6,51.5l11.5,8.7l12.6-13c0,0,0.6-1.9-1.3-1.5l-11.4,11.7l-10-7.7
			C93.1,49.7,91,49.4,91.6,51.5z"/>
		<linearGradient id="XMLID_23_" gradientUnits="userSpaceOnUse" x1="78.7031" y1="52.5375" x2="127.6169" y2="52.5375">
			<stop  offset="0" style="stop-color:#FFED00"/>
			<stop  offset="0.6364" style="stop-color:#3FB498"/>
			<stop  offset="0.9269" style="stop-color:#009ACB"/>
		</linearGradient>
		<path id="XMLID_13_" class="st7" d="M103.2,28.1c-13.5,0-24.5,10.9-24.5,24.5C78.7,66,89.7,77,103.2,77
			c13.5,0,24.5-10.9,24.5-24.5C127.6,39,116.7,28.1,103.2,28.1z M103.2,73.7C91.5,73.7,82,64.2,82,52.5s9.5-21.1,21.1-21.1
			s21.1,9.5,21.1,21.1S114.8,73.7,103.2,73.7z"/>
	</g>
	<g id="XMLID_178_">
		<g>
			<path class="st1" d="M64.2,156.4c0,0.1,0,0.3,0,0.4c0,0.1,0,0.2-0.1,0.2c0,0.1-0.1,0.1-0.1,0.2c0,0-0.1,0-0.2,0h-6.2
				c-0.2,0-0.3-0.1-0.5-0.2s-0.2-0.3-0.2-0.6v-13c0-0.1,0-0.1,0-0.2c0,0,0.1-0.1,0.2-0.1c0.1,0,0.2,0,0.3-0.1c0.1,0,0.3,0,0.4,0
				c0.2,0,0.3,0,0.5,0c0.1,0,0.2,0,0.3,0.1c0.1,0,0.1,0.1,0.2,0.1c0,0,0,0.1,0,0.2v12.1h5c0.1,0,0.1,0,0.2,0c0,0,0.1,0.1,0.1,0.1
				c0,0.1,0.1,0.1,0.1,0.2C64.2,156.1,64.2,156.2,64.2,156.4z"/>
			<path class="st1" d="M73.4,156.9c0,0.1,0,0.2-0.1,0.2c-0.1,0-0.1,0.1-0.2,0.1c-0.1,0-0.2,0-0.4,0c-0.2,0-0.3,0-0.5,0
				c-0.1,0-0.2-0.1-0.2-0.1c0,0-0.1-0.1-0.1-0.2v-1c-0.4,0.5-0.9,0.8-1.4,1.1c-0.5,0.3-1.1,0.4-1.7,0.4c-0.5,0-1-0.1-1.4-0.2
				c-0.4-0.1-0.8-0.3-1.1-0.6c-0.3-0.3-0.5-0.6-0.7-0.9c-0.2-0.4-0.2-0.8-0.2-1.3c0-0.5,0.1-1,0.3-1.4c0.2-0.4,0.5-0.7,1-1
				c0.4-0.3,0.9-0.5,1.5-0.6c0.6-0.1,1.3-0.2,2-0.2h1.3v-0.8c0-0.4,0-0.7-0.1-1c-0.1-0.3-0.2-0.5-0.4-0.7c-0.2-0.2-0.4-0.3-0.7-0.4
				c-0.3-0.1-0.6-0.1-1-0.1c-0.4,0-0.8,0.1-1.2,0.2c-0.4,0.1-0.7,0.2-0.9,0.3c-0.3,0.1-0.5,0.2-0.7,0.3c-0.2,0.1-0.3,0.2-0.4,0.2
				c-0.1,0-0.1,0-0.2,0c0,0-0.1-0.1-0.1-0.1c0-0.1-0.1-0.1-0.1-0.2c0-0.1,0-0.2,0-0.3c0-0.2,0-0.3,0-0.4c0-0.1,0.1-0.2,0.2-0.3
				c0.1-0.1,0.3-0.2,0.5-0.3s0.5-0.2,0.8-0.3c0.3-0.1,0.6-0.2,1-0.3c0.4-0.1,0.7-0.1,1.1-0.1c0.7,0,1.3,0.1,1.8,0.2
				c0.5,0.2,0.9,0.4,1.2,0.7c0.3,0.3,0.5,0.7,0.7,1.1c0.1,0.5,0.2,1,0.2,1.6V156.9z M71.7,152.5h-1.5c-0.5,0-0.9,0-1.3,0.1
				c-0.4,0.1-0.7,0.2-0.9,0.4c-0.2,0.2-0.4,0.4-0.5,0.6c-0.1,0.2-0.2,0.5-0.2,0.8c0,0.5,0.2,0.9,0.5,1.2c0.3,0.3,0.8,0.4,1.3,0.4
				c0.5,0,0.9-0.1,1.3-0.4c0.4-0.2,0.8-0.6,1.3-1.1V152.5z"/>
			<path class="st1" d="M86.8,156.2c0,0.2,0,0.4,0,0.5c0,0.1-0.1,0.2-0.1,0.3c-0.1,0.1-0.1,0.1-0.3,0.2c-0.1,0-0.2,0.1-0.4,0.1
				c-0.1,0-0.3,0.1-0.5,0.1c-0.2,0-0.3,0-0.5,0c-0.5,0-0.9-0.1-1.3-0.2c-0.4-0.1-0.7-0.3-0.9-0.6c-0.2-0.3-0.4-0.6-0.5-1
				c-0.1-0.4-0.2-0.9-0.2-1.5v-5.7h-1.4c-0.1,0-0.2-0.1-0.3-0.2c-0.1-0.1-0.1-0.3-0.1-0.6c0-0.1,0-0.3,0-0.3c0-0.1,0-0.2,0.1-0.2
				c0-0.1,0.1-0.1,0.1-0.1c0,0,0.1,0,0.2,0h1.4v-2.3c0,0,0-0.1,0-0.1c0,0,0.1-0.1,0.1-0.1c0.1,0,0.2-0.1,0.3-0.1s0.3,0,0.4,0
				c0.2,0,0.3,0,0.4,0c0.1,0,0.2,0,0.3,0.1c0.1,0,0.1,0.1,0.1,0.1c0,0,0,0.1,0,0.1v2.3h2.5c0.1,0,0.1,0,0.2,0c0,0,0.1,0.1,0.1,0.1
				c0,0.1,0.1,0.1,0.1,0.2c0,0.1,0,0.2,0,0.3c0,0.3,0,0.4-0.1,0.6c-0.1,0.1-0.2,0.2-0.3,0.2H84v5.4c0,0.7,0.1,1.2,0.3,1.5
				c0.2,0.3,0.6,0.5,1.1,0.5c0.2,0,0.3,0,0.4,0c0.1,0,0.2-0.1,0.3-0.1c0.1,0,0.2-0.1,0.3-0.1c0.1,0,0.1,0,0.2,0c0,0,0.1,0,0.1,0
				c0,0,0.1,0.1,0.1,0.1c0,0,0,0.1,0,0.2C86.8,156,86.8,156.1,86.8,156.2z"/>
			<path class="st1" d="M97.3,151.6c0,0.3-0.1,0.5-0.2,0.6c-0.1,0.1-0.3,0.2-0.5,0.2h-6.4c0,0.5,0.1,1,0.2,1.5
				c0.1,0.4,0.3,0.8,0.5,1.1c0.3,0.3,0.6,0.5,1,0.7c0.4,0.2,0.9,0.2,1.5,0.2c0.5,0,0.9,0,1.2-0.1c0.4-0.1,0.7-0.2,0.9-0.3
				c0.3-0.1,0.5-0.2,0.7-0.3c0.2-0.1,0.3-0.1,0.4-0.1c0,0,0.1,0,0.1,0c0,0,0.1,0.1,0.1,0.1c0,0,0,0.1,0,0.2c0,0.1,0,0.2,0,0.3
				c0,0.1,0,0.2,0,0.2c0,0.1,0,0.1,0,0.2c0,0.1,0,0.1-0.1,0.1c0,0-0.1,0.1-0.1,0.1s-0.2,0.1-0.4,0.2c-0.2,0.1-0.4,0.2-0.8,0.3
				c-0.3,0.1-0.7,0.2-1.1,0.2c-0.4,0.1-0.8,0.1-1.3,0.1c-0.8,0-1.5-0.1-2.1-0.3c-0.6-0.2-1.1-0.6-1.5-1c-0.4-0.4-0.7-1-0.9-1.7
				c-0.2-0.7-0.3-1.4-0.3-2.3c0-0.8,0.1-1.6,0.3-2.3s0.5-1.2,0.9-1.7c0.4-0.5,0.9-0.8,1.5-1.1c0.6-0.2,1.2-0.4,1.9-0.4
				c0.8,0,1.4,0.1,2,0.4c0.5,0.2,1,0.6,1.3,1s0.6,0.9,0.8,1.5c0.2,0.6,0.2,1.2,0.2,1.8V151.6z M95.5,151.1c0-0.9-0.2-1.7-0.6-2.2
				c-0.4-0.5-1.1-0.8-2-0.8c-0.4,0-0.8,0.1-1.2,0.2c-0.3,0.2-0.6,0.4-0.8,0.7c-0.2,0.3-0.4,0.6-0.5,1c-0.1,0.4-0.2,0.7-0.2,1.1H95.5
				z"/>
			<path class="st1" d="M114.5,156.9c0,0.1,0,0.1,0,0.1s-0.1,0.1-0.1,0.1c-0.1,0-0.2,0.1-0.3,0.1c-0.1,0-0.3,0-0.4,0
				c-0.2,0-0.3,0-0.4,0c-0.1,0-0.2,0-0.3-0.1s-0.1-0.1-0.1-0.1s0-0.1,0-0.1V151c0-0.4,0-0.8-0.1-1.1c-0.1-0.3-0.2-0.6-0.3-0.9
				c-0.2-0.2-0.4-0.4-0.6-0.6c-0.2-0.1-0.5-0.2-0.9-0.2c-0.4,0-0.8,0.2-1.2,0.5c-0.4,0.3-0.9,0.8-1.4,1.4v6.8c0,0.1,0,0.1,0,0.1
				s-0.1,0.1-0.1,0.1s-0.2,0.1-0.3,0.1c-0.1,0-0.3,0-0.4,0c-0.2,0-0.3,0-0.4,0c-0.1,0-0.2,0-0.3-0.1s-0.1-0.1-0.1-0.1
				c0,0,0-0.1,0-0.1V151c0-0.4,0-0.8-0.1-1.1c-0.1-0.3-0.2-0.6-0.4-0.9c-0.2-0.2-0.4-0.4-0.6-0.6c-0.2-0.1-0.5-0.2-0.9-0.2
				c-0.4,0-0.8,0.2-1.2,0.5c-0.4,0.3-0.9,0.8-1.4,1.4v6.8c0,0.1,0,0.1,0,0.1s-0.1,0.1-0.1,0.1c-0.1,0-0.2,0.1-0.3,0.1
				c-0.1,0-0.3,0-0.4,0c-0.2,0-0.3,0-0.4,0c-0.1,0-0.2,0-0.3-0.1s-0.1-0.1-0.1-0.1c0,0,0-0.1,0-0.1v-9.8c0-0.1,0-0.1,0-0.1
				s0.1-0.1,0.1-0.1c0.1,0,0.2-0.1,0.3-0.1c0.1,0,0.2,0,0.4,0c0.2,0,0.3,0,0.4,0c0.1,0,0.2,0,0.2,0.1c0.1,0,0.1,0.1,0.1,0.1
				c0,0,0,0.1,0,0.1v1.3c0.5-0.6,1.1-1.1,1.6-1.4c0.5-0.3,1-0.4,1.6-0.4c0.4,0,0.8,0,1.1,0.1c0.3,0.1,0.6,0.2,0.9,0.4
				c0.2,0.2,0.5,0.4,0.6,0.6c0.2,0.2,0.3,0.5,0.4,0.8c0.3-0.4,0.6-0.7,0.9-0.9c0.3-0.2,0.6-0.4,0.8-0.6c0.3-0.2,0.5-0.3,0.8-0.3
				c0.3-0.1,0.5-0.1,0.8-0.1c0.6,0,1.2,0.1,1.6,0.3c0.4,0.2,0.8,0.5,1,0.9c0.3,0.4,0.5,0.8,0.6,1.3c0.1,0.5,0.2,1,0.2,1.6V156.9z"/>
			<path class="st1" d="M126.7,151.9c0,0.9-0.1,1.6-0.3,2.3c-0.2,0.7-0.5,1.3-0.8,1.7c-0.4,0.5-0.8,0.8-1.3,1.1
				c-0.5,0.3-1.1,0.4-1.8,0.4c-0.3,0-0.6,0-0.8-0.1c-0.2-0.1-0.5-0.1-0.7-0.3c-0.2-0.1-0.5-0.3-0.7-0.5c-0.2-0.2-0.5-0.4-0.7-0.7
				v4.9c0,0.1,0,0.1,0,0.2c0,0-0.1,0.1-0.1,0.1s-0.2,0.1-0.3,0.1c-0.1,0-0.3,0-0.4,0c-0.2,0-0.3,0-0.4,0c-0.1,0-0.2,0-0.3-0.1
				c-0.1,0-0.1-0.1-0.1-0.1c0,0,0-0.1,0-0.2v-13.6c0-0.1,0-0.1,0-0.2c0,0,0.1-0.1,0.1-0.1c0.1,0,0.1,0,0.2-0.1c0.1,0,0.2,0,0.4,0
				c0.2,0,0.3,0,0.4,0c0.1,0,0.2,0,0.2,0.1c0.1,0,0.1,0.1,0.1,0.1c0,0,0,0.1,0,0.2v1.3c0.3-0.3,0.6-0.6,0.9-0.8
				c0.3-0.2,0.5-0.4,0.8-0.6c0.3-0.1,0.6-0.3,0.9-0.3c0.3-0.1,0.6-0.1,0.9-0.1c0.7,0,1.3,0.1,1.8,0.4c0.5,0.3,0.9,0.7,1.2,1.1
				c0.3,0.5,0.5,1,0.7,1.7C126.6,150.5,126.7,151.2,126.7,151.9z M124.8,152.1c0-0.5,0-1-0.1-1.4c-0.1-0.5-0.2-0.9-0.4-1.2
				c-0.2-0.4-0.4-0.7-0.7-0.9c-0.3-0.2-0.7-0.3-1.2-0.3c-0.2,0-0.5,0-0.7,0.1c-0.2,0.1-0.5,0.2-0.7,0.3c-0.2,0.1-0.5,0.3-0.7,0.6
				c-0.3,0.2-0.5,0.5-0.8,0.9v3.9c0.5,0.6,1,1.1,1.4,1.4c0.4,0.3,0.9,0.5,1.4,0.5c0.4,0,0.8-0.1,1.2-0.3c0.3-0.2,0.6-0.5,0.8-0.9
				c0.2-0.4,0.3-0.8,0.4-1.2C124.8,153,124.8,152.6,124.8,152.1z"/>
			<path class="st1" d="M137.7,151.6c0,0.3-0.1,0.5-0.2,0.6c-0.1,0.1-0.3,0.2-0.5,0.2h-6.4c0,0.5,0.1,1,0.2,1.5
				c0.1,0.4,0.3,0.8,0.5,1.1c0.3,0.3,0.6,0.5,1,0.7c0.4,0.2,0.9,0.2,1.5,0.2c0.5,0,0.9,0,1.2-0.1c0.4-0.1,0.7-0.2,0.9-0.3
				c0.3-0.1,0.5-0.2,0.7-0.3c0.2-0.1,0.3-0.1,0.4-0.1c0,0,0.1,0,0.1,0c0,0,0.1,0.1,0.1,0.1c0,0,0,0.1,0.1,0.2c0,0.1,0,0.2,0,0.3
				c0,0.1,0,0.2,0,0.2c0,0.1,0,0.1,0,0.2c0,0.1,0,0.1-0.1,0.1s-0.1,0.1-0.1,0.1s-0.2,0.1-0.4,0.2c-0.2,0.1-0.4,0.2-0.8,0.3
				c-0.3,0.1-0.7,0.2-1.1,0.2c-0.4,0.1-0.8,0.1-1.3,0.1c-0.8,0-1.5-0.1-2.1-0.3c-0.6-0.2-1.1-0.6-1.5-1s-0.7-1-0.9-1.7
				c-0.2-0.7-0.3-1.4-0.3-2.3c0-0.8,0.1-1.6,0.3-2.3c0.2-0.7,0.5-1.2,0.9-1.7c0.4-0.5,0.9-0.8,1.5-1.1c0.6-0.2,1.2-0.4,1.9-0.4
				c0.8,0,1.4,0.1,2,0.4c0.5,0.2,1,0.6,1.3,1c0.3,0.4,0.6,0.9,0.8,1.5c0.2,0.6,0.2,1.2,0.2,1.8V151.6z M135.9,151.1
				c0-0.9-0.2-1.7-0.6-2.2c-0.4-0.5-1.1-0.8-2-0.8c-0.4,0-0.8,0.1-1.2,0.2c-0.3,0.2-0.6,0.4-0.8,0.7c-0.2,0.3-0.4,0.6-0.5,1
				c-0.1,0.4-0.2,0.7-0.2,1.1H135.9z"/>
			<path class="st1" d="M146.1,147.8c0,0.2,0,0.3,0,0.4c0,0.1,0,0.2,0,0.3c0,0.1,0,0.1-0.1,0.1c0,0-0.1,0-0.1,0c-0.1,0-0.1,0-0.2,0
				c-0.1,0-0.2-0.1-0.3-0.1c-0.1,0-0.2-0.1-0.4-0.1c-0.1,0-0.3,0-0.4,0c-0.2,0-0.4,0-0.5,0.1c-0.2,0.1-0.4,0.2-0.5,0.4
				c-0.2,0.2-0.4,0.4-0.6,0.7c-0.2,0.3-0.4,0.6-0.7,1v6.4c0,0.1,0,0.1,0,0.1c0,0-0.1,0.1-0.1,0.1c-0.1,0-0.2,0.1-0.3,0.1
				c-0.1,0-0.3,0-0.4,0c-0.2,0-0.3,0-0.4,0c-0.1,0-0.2,0-0.3-0.1c-0.1,0-0.1-0.1-0.1-0.1c0,0,0-0.1,0-0.1v-9.8c0-0.1,0-0.1,0-0.1
				c0,0,0.1-0.1,0.1-0.1c0.1,0,0.1-0.1,0.2-0.1c0.1,0,0.2,0,0.4,0c0.2,0,0.3,0,0.4,0c0.1,0,0.2,0,0.2,0.1c0.1,0,0.1,0.1,0.1,0.1
				s0,0.1,0,0.1v1.4c0.3-0.4,0.5-0.7,0.8-1c0.2-0.2,0.5-0.4,0.7-0.6s0.4-0.2,0.6-0.3c0.2-0.1,0.4-0.1,0.6-0.1c0.1,0,0.2,0,0.3,0
				c0.1,0,0.2,0,0.4,0.1c0.1,0,0.2,0.1,0.4,0.1c0.1,0,0.2,0.1,0.2,0.1c0,0,0.1,0.1,0.1,0.1c0,0,0,0.1,0,0.1c0,0,0,0.1,0,0.2
				C146.1,147.5,146.1,147.6,146.1,147.8z"/>
			<path class="st1" d="M155.1,156.9c0,0.1,0,0.2-0.1,0.2c-0.1,0-0.1,0.1-0.2,0.1c-0.1,0-0.2,0-0.4,0c-0.2,0-0.3,0-0.4,0
				c-0.1,0-0.2-0.1-0.2-0.1c0,0-0.1-0.1-0.1-0.2v-1c-0.4,0.5-0.9,0.8-1.4,1.1c-0.5,0.3-1.1,0.4-1.7,0.4c-0.5,0-1-0.1-1.4-0.2
				c-0.4-0.1-0.8-0.3-1.1-0.6c-0.3-0.3-0.5-0.6-0.7-0.9c-0.2-0.4-0.2-0.8-0.2-1.3c0-0.5,0.1-1,0.3-1.4c0.2-0.4,0.5-0.7,1-1
				c0.4-0.3,0.9-0.5,1.5-0.6c0.6-0.1,1.3-0.2,2-0.2h1.3v-0.8c0-0.4,0-0.7-0.1-1c-0.1-0.3-0.2-0.5-0.4-0.7c-0.2-0.2-0.4-0.3-0.7-0.4
				c-0.3-0.1-0.6-0.1-1-0.1c-0.4,0-0.8,0.1-1.2,0.2c-0.4,0.1-0.7,0.2-0.9,0.3c-0.3,0.1-0.5,0.2-0.7,0.3c-0.2,0.1-0.3,0.2-0.4,0.2
				c-0.1,0-0.1,0-0.2,0c0,0-0.1-0.1-0.1-0.1c0-0.1-0.1-0.1-0.1-0.2c0-0.1,0-0.2,0-0.3c0-0.2,0-0.3,0-0.4c0-0.1,0.1-0.2,0.2-0.3
				c0.1-0.1,0.3-0.2,0.5-0.3c0.2-0.1,0.5-0.2,0.8-0.3c0.3-0.1,0.7-0.2,1-0.3c0.4-0.1,0.7-0.1,1.1-0.1c0.7,0,1.3,0.1,1.8,0.2
				c0.5,0.2,0.9,0.4,1.2,0.7c0.3,0.3,0.5,0.7,0.7,1.1s0.2,1,0.2,1.6V156.9z M153.3,152.5h-1.5c-0.5,0-0.9,0-1.3,0.1
				c-0.4,0.1-0.7,0.2-0.9,0.4c-0.2,0.2-0.4,0.4-0.5,0.6c-0.1,0.2-0.2,0.5-0.2,0.8c0,0.5,0.2,0.9,0.5,1.2c0.3,0.3,0.8,0.4,1.3,0.4
				c0.5,0,0.9-0.1,1.3-0.4c0.4-0.2,0.8-0.6,1.3-1.1V152.5z"/>
			<path class="st1" d="M163.2,156.2c0,0.2,0,0.4,0,0.5c0,0.1-0.1,0.2-0.1,0.3c-0.1,0.1-0.1,0.1-0.3,0.2c-0.1,0-0.2,0.1-0.4,0.1
				c-0.1,0-0.3,0.1-0.5,0.1c-0.2,0-0.3,0-0.5,0c-0.5,0-0.9-0.1-1.3-0.2c-0.4-0.1-0.7-0.3-0.9-0.6c-0.2-0.3-0.4-0.6-0.5-1
				c-0.1-0.4-0.2-0.9-0.2-1.5v-5.7h-1.4c-0.1,0-0.2-0.1-0.3-0.2c-0.1-0.1-0.1-0.3-0.1-0.6c0-0.1,0-0.3,0-0.3c0-0.1,0-0.2,0.1-0.2
				c0-0.1,0.1-0.1,0.1-0.1c0,0,0.1,0,0.2,0h1.4v-2.3c0,0,0-0.1,0-0.1c0,0,0.1-0.1,0.1-0.1c0.1,0,0.2-0.1,0.3-0.1c0.1,0,0.3,0,0.4,0
				c0.2,0,0.3,0,0.4,0s0.2,0,0.3,0.1c0.1,0,0.1,0.1,0.1,0.1c0,0,0,0.1,0,0.1v2.3h2.5c0.1,0,0.1,0,0.2,0c0,0,0.1,0.1,0.1,0.1
				c0,0.1,0.1,0.1,0.1,0.2c0,0.1,0,0.2,0,0.3c0,0.3,0,0.4-0.1,0.6c-0.1,0.1-0.2,0.2-0.3,0.2h-2.5v5.4c0,0.7,0.1,1.2,0.3,1.5
				c0.2,0.3,0.6,0.5,1.1,0.5c0.2,0,0.3,0,0.4,0c0.1,0,0.2-0.1,0.3-0.1c0.1,0,0.2-0.1,0.3-0.1c0.1,0,0.1,0,0.2,0c0,0,0.1,0,0.1,0
				c0,0,0.1,0.1,0.1,0.1c0,0,0,0.1,0,0.2C163.2,156,163.2,156.1,163.2,156.2z"/>
			<path class="st1" d="M173.9,156.9c0,0.1,0,0.1,0,0.1c0,0-0.1,0.1-0.1,0.1c-0.1,0-0.2,0.1-0.3,0.1c-0.1,0-0.2,0-0.4,0
				c-0.2,0-0.3,0-0.4,0c-0.1,0-0.2,0-0.2-0.1c-0.1,0-0.1-0.1-0.1-0.1c0,0,0-0.1,0-0.1v-1.3c-0.6,0.6-1.1,1.1-1.6,1.3
				c-0.5,0.3-1.1,0.4-1.6,0.4c-0.7,0-1.2-0.1-1.6-0.3c-0.4-0.2-0.8-0.5-1.1-0.9c-0.3-0.4-0.5-0.8-0.6-1.3c-0.1-0.5-0.2-1.1-0.2-1.8
				v-5.9c0-0.1,0-0.1,0-0.1c0,0,0.1-0.1,0.1-0.1c0.1,0,0.2-0.1,0.3-0.1c0.1,0,0.3,0,0.4,0c0.2,0,0.3,0,0.4,0c0.1,0,0.2,0,0.3,0.1
				c0.1,0,0.1,0.1,0.1,0.1c0,0,0,0.1,0,0.1v5.7c0,0.6,0,1,0.1,1.4c0.1,0.3,0.2,0.6,0.4,0.9c0.2,0.2,0.4,0.4,0.6,0.6
				c0.3,0.1,0.6,0.2,0.9,0.2c0.4,0,0.9-0.2,1.3-0.5c0.4-0.3,0.9-0.8,1.4-1.4v-6.8c0-0.1,0-0.1,0-0.1s0.1-0.1,0.1-0.1
				c0.1,0,0.2-0.1,0.3-0.1c0.1,0,0.3,0,0.4,0c0.2,0,0.3,0,0.4,0c0.1,0,0.2,0,0.3,0.1c0.1,0,0.1,0.1,0.1,0.1c0,0,0.1,0.1,0.1,0.1
				V156.9z"/>
			<path class="st1" d="M182.9,147.8c0,0.2,0,0.3,0,0.4c0,0.1,0,0.2,0,0.3c0,0.1,0,0.1-0.1,0.1c0,0-0.1,0-0.1,0c-0.1,0-0.1,0-0.2,0
				c-0.1,0-0.2-0.1-0.3-0.1c-0.1,0-0.2-0.1-0.4-0.1c-0.1,0-0.3,0-0.4,0c-0.2,0-0.4,0-0.5,0.1c-0.2,0.1-0.4,0.2-0.5,0.4
				c-0.2,0.2-0.4,0.4-0.6,0.7c-0.2,0.3-0.4,0.6-0.7,1v6.4c0,0.1,0,0.1,0,0.1c0,0-0.1,0.1-0.1,0.1s-0.2,0.1-0.3,0.1
				c-0.1,0-0.3,0-0.4,0c-0.2,0-0.3,0-0.4,0c-0.1,0-0.2,0-0.3-0.1c-0.1,0-0.1-0.1-0.1-0.1c0,0,0-0.1,0-0.1v-9.8c0-0.1,0-0.1,0-0.1
				c0,0,0.1-0.1,0.1-0.1c0.1,0,0.1-0.1,0.3-0.1c0.1,0,0.2,0,0.4,0c0.2,0,0.3,0,0.4,0c0.1,0,0.2,0,0.2,0.1c0.1,0,0.1,0.1,0.1,0.1
				c0,0,0,0.1,0,0.1v1.4c0.3-0.4,0.5-0.7,0.8-1c0.2-0.2,0.5-0.4,0.7-0.6c0.2-0.1,0.4-0.2,0.6-0.3c0.2-0.1,0.4-0.1,0.6-0.1
				c0.1,0,0.2,0,0.3,0c0.1,0,0.2,0,0.4,0.1c0.1,0,0.2,0.1,0.4,0.1c0.1,0,0.2,0.1,0.2,0.1c0,0,0.1,0.1,0.1,0.1c0,0,0,0.1,0,0.1
				c0,0,0,0.1,0,0.2C182.9,147.5,182.9,147.6,182.9,147.8z"/>
			<path class="st1" d="M191.9,156.9c0,0.1,0,0.2-0.1,0.2c-0.1,0-0.1,0.1-0.2,0.1c-0.1,0-0.3,0-0.4,0c-0.2,0-0.3,0-0.4,0
				c-0.1,0-0.2-0.1-0.2-0.1c-0.1,0-0.1-0.1-0.1-0.2v-1c-0.4,0.5-0.9,0.8-1.4,1.1c-0.5,0.3-1.1,0.4-1.7,0.4c-0.5,0-1-0.1-1.4-0.2
				c-0.4-0.1-0.8-0.3-1.1-0.6c-0.3-0.3-0.5-0.6-0.7-0.9c-0.2-0.4-0.2-0.8-0.2-1.3c0-0.5,0.1-1,0.3-1.4c0.2-0.4,0.5-0.7,1-1
				c0.4-0.3,0.9-0.5,1.5-0.6c0.6-0.1,1.3-0.2,2-0.2h1.3v-0.8c0-0.4,0-0.7-0.1-1c-0.1-0.3-0.2-0.5-0.4-0.7c-0.2-0.2-0.4-0.3-0.7-0.4
				c-0.3-0.1-0.6-0.1-1-0.1c-0.4,0-0.8,0.1-1.2,0.2c-0.4,0.1-0.7,0.2-0.9,0.3c-0.3,0.1-0.5,0.2-0.7,0.3c-0.2,0.1-0.3,0.2-0.4,0.2
				c-0.1,0-0.1,0-0.2,0c0,0-0.1-0.1-0.1-0.1c0-0.1-0.1-0.1-0.1-0.2c0-0.1,0-0.2,0-0.3c0-0.2,0-0.3,0-0.4c0-0.1,0.1-0.2,0.2-0.3
				c0.1-0.1,0.3-0.2,0.5-0.3s0.5-0.2,0.8-0.3c0.3-0.1,0.7-0.2,1-0.3c0.4-0.1,0.7-0.1,1.1-0.1c0.7,0,1.3,0.1,1.8,0.2
				c0.5,0.2,0.9,0.4,1.2,0.7c0.3,0.3,0.5,0.7,0.7,1.1c0.1,0.5,0.2,1,0.2,1.6V156.9z M190.1,152.5h-1.5c-0.5,0-0.9,0-1.3,0.1
				c-0.4,0.1-0.7,0.2-0.9,0.4c-0.2,0.2-0.4,0.4-0.5,0.6s-0.2,0.5-0.2,0.8c0,0.5,0.2,0.9,0.5,1.2c0.3,0.3,0.8,0.4,1.3,0.4
				c0.5,0,0.9-0.1,1.3-0.4c0.4-0.2,0.8-0.6,1.3-1.1V152.5z"/>
			<path class="st1" d="M83.7,183.3c0,0.1,0,0.1,0,0.2c0,0-0.1,0.1-0.1,0.1c-0.1,0-0.2,0.1-0.3,0.1c-0.1,0-0.3,0-0.4,0
				c-0.2,0-0.3,0-0.4,0c-0.1,0-0.2,0-0.3-0.1c-0.1,0-0.1-0.1-0.1-0.1c0,0,0-0.1,0-0.2v-5c-0.3,0.3-0.6,0.5-0.8,0.8
				c-0.3,0.2-0.5,0.4-0.8,0.5s-0.5,0.2-0.8,0.3c-0.3,0.1-0.5,0.1-0.8,0.1c-0.7,0-1.3-0.1-1.8-0.4c-0.5-0.3-0.9-0.7-1.2-1.1
				c-0.3-0.5-0.5-1-0.7-1.7c-0.1-0.6-0.2-1.3-0.2-2c0-0.8,0.1-1.6,0.3-2.3c0.2-0.7,0.4-1.3,0.8-1.7c0.4-0.5,0.8-0.8,1.3-1.1
				c0.5-0.3,1.1-0.4,1.8-0.4c0.3,0,0.6,0,0.8,0.1c0.3,0.1,0.5,0.2,0.8,0.3c0.2,0.1,0.5,0.3,0.8,0.5c0.3,0.2,0.5,0.5,0.8,0.8v-1.2
				c0-0.1,0-0.1,0-0.2c0,0,0.1-0.1,0.1-0.1c0.1,0,0.1,0,0.2-0.1c0.1,0,0.2,0,0.4,0c0.1,0,0.3,0,0.4,0c0.1,0,0.2,0,0.2,0.1
				c0.1,0,0.1,0.1,0.1,0.1c0,0,0,0.1,0,0.2V183.3z M81.9,172.6c-0.5-0.6-1-1.1-1.4-1.4c-0.5-0.3-0.9-0.5-1.4-0.5
				c-0.5,0-0.8,0.1-1.2,0.3c-0.3,0.2-0.6,0.5-0.8,0.9c-0.2,0.4-0.3,0.8-0.4,1.2c-0.1,0.4-0.1,0.9-0.1,1.4c0,0.5,0,1,0.1,1.5
				c0.1,0.5,0.2,0.9,0.4,1.2c0.2,0.4,0.4,0.7,0.7,0.9c0.3,0.2,0.7,0.3,1.2,0.3c0.2,0,0.5,0,0.7-0.1c0.2-0.1,0.4-0.2,0.7-0.3
				c0.2-0.2,0.5-0.4,0.7-0.6c0.3-0.2,0.5-0.5,0.8-0.9V172.6z"/>
			<path class="st1" d="M95.4,179.4c0,0.1,0,0.1,0,0.1c0,0-0.1,0.1-0.1,0.1c-0.1,0-0.2,0.1-0.3,0.1c-0.1,0-0.2,0-0.4,0
				c-0.2,0-0.3,0-0.4,0c-0.1,0-0.2,0-0.2-0.1s-0.1-0.1-0.1-0.1c0,0,0-0.1,0-0.1v-1.3c-0.6,0.6-1.1,1.1-1.6,1.3
				c-0.5,0.3-1.1,0.4-1.6,0.4c-0.7,0-1.2-0.1-1.6-0.3c-0.4-0.2-0.8-0.5-1.1-0.9c-0.3-0.4-0.5-0.8-0.6-1.3c-0.1-0.5-0.2-1.1-0.2-1.8
				v-5.9c0-0.1,0-0.1,0-0.1c0,0,0.1-0.1,0.1-0.1c0.1,0,0.2-0.1,0.3-0.1c0.1,0,0.3,0,0.4,0c0.2,0,0.3,0,0.4,0c0.1,0,0.2,0,0.3,0.1
				c0.1,0,0.1,0.1,0.1,0.1c0,0,0,0.1,0,0.1v5.7c0,0.6,0,1,0.1,1.4c0.1,0.3,0.2,0.6,0.4,0.9c0.2,0.2,0.4,0.4,0.6,0.6
				c0.3,0.1,0.6,0.2,0.9,0.2c0.4,0,0.9-0.2,1.3-0.5c0.4-0.3,0.9-0.8,1.4-1.4v-6.8c0-0.1,0-0.1,0-0.1c0,0,0.1-0.1,0.1-0.1
				c0.1,0,0.2-0.1,0.3-0.1c0.1,0,0.3,0,0.4,0c0.2,0,0.3,0,0.4,0c0.1,0,0.2,0,0.3,0.1c0.1,0,0.1,0.1,0.1,0.1c0,0,0.1,0.1,0.1,0.1
				V179.4z"/>
			<path class="st1" d="M107,174.1c0,0.3-0.1,0.5-0.2,0.6c-0.1,0.1-0.3,0.2-0.5,0.2h-6.4c0,0.5,0.1,1,0.2,1.5
				c0.1,0.4,0.3,0.8,0.5,1.1c0.3,0.3,0.6,0.5,1,0.7c0.4,0.2,0.9,0.2,1.5,0.2c0.5,0,0.9,0,1.2-0.1c0.4-0.1,0.7-0.2,0.9-0.3
				c0.3-0.1,0.5-0.2,0.7-0.3c0.2-0.1,0.3-0.1,0.4-0.1c0,0,0.1,0,0.1,0c0,0,0.1,0.1,0.1,0.1c0,0,0,0.1,0.1,0.2c0,0.1,0,0.2,0,0.3
				c0,0.1,0,0.2,0,0.2s0,0.1,0,0.2c0,0.1,0,0.1-0.1,0.1c0,0-0.1,0.1-0.1,0.1s-0.2,0.1-0.4,0.2c-0.2,0.1-0.4,0.2-0.8,0.3
				c-0.3,0.1-0.7,0.2-1.1,0.2c-0.4,0.1-0.8,0.1-1.3,0.1c-0.8,0-1.5-0.1-2.1-0.3c-0.6-0.2-1.1-0.6-1.5-1c-0.4-0.4-0.7-1-0.9-1.7
				c-0.2-0.7-0.3-1.4-0.3-2.3c0-0.8,0.1-1.6,0.3-2.3c0.2-0.7,0.5-1.2,0.9-1.7c0.4-0.5,0.9-0.8,1.5-1.1c0.6-0.2,1.2-0.4,1.9-0.4
				c0.8,0,1.4,0.1,2,0.4c0.5,0.2,1,0.6,1.3,1c0.3,0.4,0.6,0.9,0.8,1.5c0.2,0.6,0.2,1.2,0.2,1.8V174.1z M105.2,173.6
				c0-0.9-0.2-1.7-0.6-2.2c-0.4-0.5-1.1-0.8-2-0.8c-0.4,0-0.8,0.1-1.2,0.2c-0.3,0.2-0.6,0.4-0.8,0.7c-0.2,0.3-0.4,0.6-0.5,1
				c-0.1,0.4-0.2,0.7-0.2,1.1H105.2z"/>
			<path class="st1" d="M123.1,179.4c0,0.1,0,0.1,0,0.2c0,0-0.1,0.1-0.1,0.1c-0.1,0-0.1,0-0.2,0.1c-0.1,0-0.2,0-0.4,0
				c-0.2,0-0.3,0-0.4,0c-0.1,0-0.2,0-0.2-0.1c-0.1,0-0.1-0.1-0.1-0.1c0,0,0-0.1,0-0.2v-1.3c-0.5,0.6-1,1-1.6,1.3
				c-0.6,0.3-1.2,0.5-1.8,0.5c-0.7,0-1.3-0.1-1.8-0.4c-0.5-0.3-0.9-0.7-1.2-1.1c-0.3-0.5-0.5-1-0.7-1.7c-0.1-0.6-0.2-1.3-0.2-2
				c0-0.8,0.1-1.6,0.3-2.3s0.4-1.3,0.8-1.7c0.4-0.5,0.8-0.8,1.3-1.1c0.5-0.3,1.1-0.4,1.8-0.4c0.6,0,1.1,0.1,1.6,0.4
				c0.5,0.2,0.9,0.6,1.4,1.1V165c0,0,0-0.1,0-0.1c0,0,0.1-0.1,0.1-0.1c0.1,0,0.2,0,0.3-0.1c0.1,0,0.3,0,0.4,0c0.2,0,0.3,0,0.4,0
				c0.1,0,0.2,0,0.3,0.1c0.1,0,0.1,0.1,0.1,0.1c0,0,0,0.1,0,0.1V179.4z M121.3,172.6c-0.5-0.6-1-1.1-1.4-1.4
				c-0.5-0.3-0.9-0.5-1.4-0.5c-0.5,0-0.8,0.1-1.2,0.3c-0.3,0.2-0.6,0.5-0.8,0.9c-0.2,0.4-0.3,0.8-0.4,1.2c-0.1,0.4-0.1,0.9-0.1,1.4
				c0,0.5,0,1,0.1,1.4c0.1,0.5,0.2,0.9,0.4,1.3c0.2,0.4,0.4,0.7,0.7,0.9c0.3,0.2,0.7,0.3,1.2,0.3c0.2,0,0.5,0,0.7-0.1
				c0.2-0.1,0.4-0.2,0.7-0.3c0.2-0.2,0.5-0.4,0.7-0.6c0.3-0.2,0.5-0.5,0.8-0.9V172.6z"/>
			<path class="st1" d="M134.8,174.1c0,0.3-0.1,0.5-0.2,0.6c-0.1,0.1-0.3,0.2-0.5,0.2h-6.4c0,0.5,0.1,1,0.2,1.5
				c0.1,0.4,0.3,0.8,0.5,1.1c0.3,0.3,0.6,0.5,1,0.7c0.4,0.2,0.9,0.2,1.5,0.2c0.5,0,0.9,0,1.2-0.1c0.4-0.1,0.7-0.2,0.9-0.3
				c0.3-0.1,0.5-0.2,0.7-0.3c0.2-0.1,0.3-0.1,0.4-0.1c0,0,0.1,0,0.1,0c0,0,0.1,0.1,0.1,0.1c0,0,0,0.1,0,0.2c0,0.1,0,0.2,0,0.3
				c0,0.1,0,0.2,0,0.2c0,0.1,0,0.1,0,0.2c0,0.1,0,0.1-0.1,0.1c0,0-0.1,0.1-0.1,0.1s-0.2,0.1-0.4,0.2c-0.2,0.1-0.4,0.2-0.8,0.3
				c-0.3,0.1-0.7,0.2-1.1,0.2c-0.4,0.1-0.8,0.1-1.3,0.1c-0.8,0-1.5-0.1-2.1-0.3s-1.1-0.6-1.5-1c-0.4-0.4-0.7-1-0.9-1.7
				c-0.2-0.7-0.3-1.4-0.3-2.3c0-0.8,0.1-1.6,0.3-2.3s0.5-1.2,0.9-1.7c0.4-0.5,0.9-0.8,1.5-1.1c0.6-0.2,1.2-0.4,1.9-0.4
				c0.8,0,1.4,0.1,2,0.4c0.5,0.2,1,0.6,1.3,1s0.6,0.9,0.8,1.5c0.2,0.6,0.2,1.2,0.2,1.8V174.1z M133,173.6c0-0.9-0.2-1.7-0.6-2.2
				c-0.4-0.5-1.1-0.8-2-0.8c-0.4,0-0.8,0.1-1.2,0.2c-0.3,0.2-0.6,0.4-0.8,0.7c-0.2,0.3-0.4,0.6-0.5,1c-0.1,0.4-0.2,0.7-0.2,1.1H133z
				"/>
			<path class="st1" d="M143.6,176.8c0,0.5-0.1,0.9-0.3,1.3c-0.2,0.4-0.4,0.7-0.8,1c-0.3,0.3-0.7,0.5-1.2,0.6
				c-0.5,0.1-1,0.2-1.6,0.2c-0.3,0-0.7,0-1-0.1c-0.3-0.1-0.6-0.1-0.8-0.2c-0.2-0.1-0.5-0.2-0.6-0.3c-0.2-0.1-0.3-0.2-0.4-0.2
				c-0.1-0.1-0.1-0.2-0.2-0.3c0-0.1-0.1-0.3-0.1-0.5c0-0.1,0-0.3,0-0.3c0-0.1,0-0.2,0.1-0.2c0-0.1,0.1-0.1,0.1-0.1c0,0,0.1,0,0.1,0
				c0.1,0,0.2,0,0.4,0.1c0.2,0.1,0.3,0.2,0.6,0.3c0.2,0.1,0.5,0.2,0.8,0.3c0.3,0.1,0.7,0.1,1.1,0.1c0.3,0,0.6,0,0.8-0.1
				c0.2-0.1,0.5-0.2,0.6-0.3c0.2-0.1,0.3-0.3,0.4-0.5c0.1-0.2,0.1-0.4,0.1-0.7c0-0.3-0.1-0.5-0.2-0.7c-0.1-0.2-0.3-0.4-0.6-0.5
				s-0.5-0.3-0.8-0.4c-0.3-0.1-0.6-0.2-0.9-0.4c-0.3-0.1-0.6-0.3-0.9-0.4c-0.3-0.2-0.6-0.3-0.8-0.6c-0.2-0.2-0.4-0.5-0.6-0.8
				c-0.1-0.3-0.2-0.7-0.2-1.1c0-0.4,0.1-0.7,0.2-1.1c0.1-0.4,0.4-0.7,0.7-0.9c0.3-0.3,0.7-0.5,1.1-0.6c0.4-0.2,1-0.2,1.6-0.2
				c0.3,0,0.5,0,0.8,0.1c0.3,0,0.5,0.1,0.7,0.2c0.2,0.1,0.4,0.1,0.5,0.2c0.1,0.1,0.3,0.1,0.3,0.2c0.1,0.1,0.1,0.1,0.2,0.2
				c0,0,0,0.1,0.1,0.1c0,0.1,0,0.1,0,0.2c0,0.1,0,0.2,0,0.3c0,0.1,0,0.2,0,0.3c0,0.1,0,0.2-0.1,0.2c0,0.1-0.1,0.1-0.1,0.1
				c0,0-0.1,0-0.1,0c-0.1,0-0.2,0-0.3-0.1c-0.1-0.1-0.3-0.2-0.5-0.3c-0.2-0.1-0.4-0.2-0.7-0.3c-0.3-0.1-0.6-0.1-0.9-0.1
				c-0.3,0-0.6,0-0.8,0.1c-0.2,0.1-0.4,0.2-0.6,0.3c-0.2,0.1-0.3,0.3-0.3,0.4c-0.1,0.2-0.1,0.4-0.1,0.6c0,0.3,0.1,0.5,0.2,0.7
				c0.1,0.2,0.3,0.4,0.6,0.5c0.2,0.1,0.5,0.3,0.8,0.4c0.3,0.1,0.6,0.2,0.9,0.4c0.3,0.1,0.6,0.3,0.9,0.4c0.3,0.2,0.6,0.3,0.8,0.6
				c0.2,0.2,0.4,0.5,0.6,0.8C143.5,176,143.6,176.3,143.6,176.8z"/>
			<path class="st1" d="M154.5,174.1c0,0.3-0.1,0.5-0.2,0.6c-0.1,0.1-0.3,0.2-0.5,0.2h-6.4c0,0.5,0.1,1,0.2,1.5
				c0.1,0.4,0.3,0.8,0.5,1.1c0.3,0.3,0.6,0.5,1,0.7c0.4,0.2,0.9,0.2,1.5,0.2c0.5,0,0.9,0,1.2-0.1c0.4-0.1,0.7-0.2,0.9-0.3
				c0.3-0.1,0.5-0.2,0.7-0.3c0.2-0.1,0.3-0.1,0.4-0.1c0.1,0,0.1,0,0.1,0c0,0,0.1,0.1,0.1,0.1c0,0,0,0.1,0,0.2c0,0.1,0,0.2,0,0.3
				c0,0.1,0,0.2,0,0.2c0,0.1,0,0.1,0,0.2c0,0.1,0,0.1-0.1,0.1c0,0-0.1,0.1-0.1,0.1c0,0-0.2,0.1-0.4,0.2c-0.2,0.1-0.4,0.2-0.8,0.3
				c-0.3,0.1-0.7,0.2-1.1,0.2c-0.4,0.1-0.8,0.1-1.3,0.1c-0.8,0-1.5-0.1-2.1-0.3c-0.6-0.2-1.1-0.6-1.5-1c-0.4-0.4-0.7-1-0.9-1.7
				c-0.2-0.7-0.3-1.4-0.3-2.3c0-0.8,0.1-1.6,0.3-2.3c0.2-0.7,0.5-1.2,0.9-1.7c0.4-0.5,0.9-0.8,1.5-1.1c0.6-0.2,1.2-0.4,1.9-0.4
				c0.8,0,1.4,0.1,2,0.4c0.5,0.2,1,0.6,1.3,1c0.3,0.4,0.6,0.9,0.8,1.5c0.2,0.6,0.2,1.2,0.2,1.8V174.1z M152.7,173.6
				c0-0.9-0.2-1.7-0.6-2.2c-0.4-0.5-1.1-0.8-2-0.8c-0.4,0-0.8,0.1-1.2,0.2c-0.3,0.2-0.6,0.4-0.8,0.7c-0.2,0.3-0.4,0.6-0.5,1
				c-0.1,0.4-0.2,0.7-0.2,1.1H152.7z"/>
			<path class="st1" d="M164.6,179.4c0,0.1,0,0.2-0.1,0.2c-0.1,0-0.1,0.1-0.2,0.1c-0.1,0-0.2,0-0.4,0c-0.2,0-0.3,0-0.4,0
				c-0.1,0-0.2-0.1-0.2-0.1c0,0-0.1-0.1-0.1-0.2v-1c-0.4,0.5-0.9,0.8-1.4,1.1c-0.5,0.3-1.1,0.4-1.7,0.4c-0.5,0-1-0.1-1.4-0.2
				c-0.4-0.1-0.8-0.3-1.1-0.6c-0.3-0.3-0.5-0.6-0.7-0.9c-0.2-0.4-0.2-0.8-0.2-1.3c0-0.5,0.1-1,0.3-1.4c0.2-0.4,0.5-0.7,1-1
				c0.4-0.3,0.9-0.5,1.5-0.6c0.6-0.1,1.3-0.2,2-0.2h1.3v-0.8c0-0.4,0-0.7-0.1-1c-0.1-0.3-0.2-0.5-0.4-0.7c-0.2-0.2-0.4-0.3-0.7-0.4
				c-0.3-0.1-0.6-0.1-1-0.1c-0.4,0-0.8,0.1-1.2,0.2c-0.4,0.1-0.7,0.2-0.9,0.3c-0.3,0.1-0.5,0.2-0.7,0.3s-0.3,0.2-0.4,0.2
				c-0.1,0-0.1,0-0.2,0c0,0-0.1-0.1-0.1-0.1c0-0.1-0.1-0.1-0.1-0.2c0-0.1,0-0.2,0-0.3c0-0.2,0-0.3,0-0.4c0-0.1,0.1-0.2,0.2-0.3
				c0.1-0.1,0.3-0.2,0.5-0.3c0.2-0.1,0.5-0.2,0.8-0.3s0.7-0.2,1-0.3c0.4-0.1,0.7-0.1,1.1-0.1c0.7,0,1.3,0.1,1.8,0.2
				c0.5,0.2,0.9,0.4,1.2,0.7c0.3,0.3,0.5,0.7,0.7,1.1s0.2,1,0.2,1.6V179.4z M162.8,175h-1.5c-0.5,0-0.9,0-1.3,0.1s-0.7,0.2-0.9,0.4
				c-0.2,0.2-0.4,0.4-0.5,0.6c-0.1,0.2-0.2,0.5-0.2,0.8c0,0.5,0.2,0.9,0.5,1.2c0.3,0.3,0.8,0.4,1.3,0.4c0.5,0,0.9-0.1,1.3-0.4
				c0.4-0.2,0.8-0.6,1.3-1.1V175z"/>
			<path class="st1" d="M174,176.8c0,0.5-0.1,0.9-0.3,1.3c-0.2,0.4-0.4,0.7-0.8,1s-0.7,0.5-1.2,0.6c-0.5,0.1-1,0.2-1.6,0.2
				c-0.3,0-0.7,0-1-0.1c-0.3-0.1-0.6-0.1-0.8-0.2c-0.2-0.1-0.5-0.2-0.6-0.3c-0.2-0.1-0.3-0.2-0.4-0.2c-0.1-0.1-0.1-0.2-0.2-0.3
				c0-0.1-0.1-0.3-0.1-0.5c0-0.1,0-0.3,0-0.3c0-0.1,0-0.2,0.1-0.2c0-0.1,0.1-0.1,0.1-0.1c0,0,0.1,0,0.1,0c0.1,0,0.2,0,0.4,0.1
				c0.2,0.1,0.3,0.2,0.6,0.3c0.2,0.1,0.5,0.2,0.8,0.3c0.3,0.1,0.7,0.1,1.1,0.1c0.3,0,0.6,0,0.8-0.1c0.2-0.1,0.5-0.2,0.6-0.3
				c0.2-0.1,0.3-0.3,0.4-0.5c0.1-0.2,0.1-0.4,0.1-0.7c0-0.3-0.1-0.5-0.2-0.7s-0.3-0.4-0.6-0.5c-0.2-0.1-0.5-0.3-0.8-0.4
				c-0.3-0.1-0.6-0.2-0.9-0.4c-0.3-0.1-0.6-0.3-0.9-0.4c-0.3-0.2-0.6-0.3-0.8-0.6c-0.2-0.2-0.4-0.5-0.6-0.8
				c-0.1-0.3-0.2-0.7-0.2-1.1c0-0.4,0.1-0.7,0.2-1.1s0.4-0.7,0.7-0.9c0.3-0.3,0.7-0.5,1.1-0.6c0.4-0.2,1-0.2,1.6-0.2
				c0.3,0,0.5,0,0.8,0.1c0.3,0,0.5,0.1,0.7,0.2c0.2,0.1,0.4,0.1,0.5,0.2s0.3,0.1,0.3,0.2c0.1,0.1,0.1,0.1,0.2,0.2c0,0,0,0.1,0.1,0.1
				c0,0.1,0,0.1,0,0.2c0,0.1,0,0.2,0,0.3c0,0.1,0,0.2,0,0.3c0,0.1,0,0.2-0.1,0.2c0,0.1-0.1,0.1-0.1,0.1c0,0-0.1,0-0.1,0
				c-0.1,0-0.2,0-0.3-0.1c-0.1-0.1-0.3-0.2-0.5-0.3c-0.2-0.1-0.4-0.2-0.7-0.3c-0.3-0.1-0.6-0.1-0.9-0.1c-0.3,0-0.6,0-0.8,0.1
				c-0.2,0.1-0.4,0.2-0.6,0.3c-0.1,0.1-0.3,0.3-0.3,0.4c-0.1,0.2-0.1,0.4-0.1,0.6c0,0.3,0.1,0.5,0.2,0.7c0.1,0.2,0.3,0.4,0.6,0.5
				c0.2,0.1,0.5,0.3,0.8,0.4c0.3,0.1,0.6,0.2,0.9,0.4c0.3,0.1,0.6,0.3,0.9,0.4c0.3,0.2,0.6,0.3,0.8,0.6c0.2,0.2,0.4,0.5,0.6,0.8
				C173.9,176,174,176.3,174,176.8z"/>
			<path class="st1" d="M52.4,196.6c0,0.3-0.1,0.5-0.2,0.6c-0.1,0.1-0.3,0.2-0.5,0.2h-6.4c0,0.5,0.1,1,0.2,1.5
				c0.1,0.4,0.3,0.8,0.5,1.1c0.3,0.3,0.6,0.5,1,0.7c0.4,0.2,0.9,0.2,1.5,0.2c0.5,0,0.9,0,1.2-0.1c0.4-0.1,0.7-0.2,0.9-0.3
				c0.3-0.1,0.5-0.2,0.7-0.3c0.2-0.1,0.3-0.1,0.4-0.1c0,0,0.1,0,0.1,0c0,0,0.1,0.1,0.1,0.1c0,0,0,0.1,0.1,0.2c0,0.1,0,0.2,0,0.3
				c0,0.1,0,0.2,0,0.2c0,0.1,0,0.1,0,0.2c0,0.1,0,0.1-0.1,0.1c0,0-0.1,0.1-0.1,0.1s-0.2,0.1-0.4,0.2c-0.2,0.1-0.4,0.2-0.8,0.3
				s-0.7,0.2-1.1,0.2c-0.4,0.1-0.8,0.1-1.3,0.1c-0.8,0-1.5-0.1-2.1-0.3c-0.6-0.2-1.1-0.6-1.5-1c-0.4-0.4-0.7-1-0.9-1.7
				c-0.2-0.7-0.3-1.4-0.3-2.3c0-0.8,0.1-1.6,0.3-2.3c0.2-0.7,0.5-1.2,0.9-1.7c0.4-0.5,0.9-0.8,1.5-1.1c0.6-0.2,1.2-0.4,1.9-0.4
				c0.8,0,1.4,0.1,2,0.4c0.5,0.2,1,0.6,1.3,1c0.3,0.4,0.6,0.9,0.8,1.5c0.2,0.6,0.2,1.2,0.2,1.8V196.6z M50.6,196.1
				c0-0.9-0.2-1.7-0.6-2.2c-0.4-0.5-1.1-0.8-2-0.8c-0.4,0-0.8,0.1-1.2,0.2c-0.3,0.2-0.6,0.4-0.8,0.7c-0.2,0.3-0.4,0.6-0.5,1
				c-0.1,0.4-0.2,0.7-0.2,1.1H50.6z"/>
			<path class="st1" d="M63.6,201.9c0,0.1,0,0.1,0,0.1s-0.1,0.1-0.1,0.1c-0.1,0-0.2,0.1-0.3,0.1c-0.1,0-0.3,0-0.4,0
				c-0.2,0-0.3,0-0.4,0c-0.1,0-0.2,0-0.3-0.1c-0.1,0-0.1-0.1-0.1-0.1c0,0,0-0.1,0-0.1v-5.7c0-0.6,0-1-0.1-1.3
				c-0.1-0.3-0.2-0.6-0.4-0.9c-0.2-0.2-0.4-0.4-0.6-0.6c-0.3-0.1-0.6-0.2-0.9-0.2c-0.4,0-0.9,0.2-1.3,0.5c-0.4,0.3-0.9,0.8-1.4,1.4
				v6.8c0,0.1,0,0.1,0,0.1c0,0-0.1,0.1-0.1,0.1c-0.1,0-0.2,0.1-0.3,0.1c-0.1,0-0.3,0-0.4,0c-0.2,0-0.3,0-0.4,0c-0.1,0-0.2,0-0.3-0.1
				c-0.1,0-0.1-0.1-0.1-0.1c0,0,0-0.1,0-0.1v-9.8c0-0.1,0-0.1,0-0.1c0,0,0.1-0.1,0.1-0.1c0.1,0,0.1-0.1,0.2-0.1c0.1,0,0.2,0,0.4,0
				c0.2,0,0.3,0,0.4,0c0.1,0,0.2,0,0.2,0.1c0.1,0,0.1,0.1,0.1,0.1c0,0,0,0.1,0,0.1v1.3c0.5-0.6,1.1-1.1,1.6-1.4
				c0.5-0.3,1.1-0.4,1.7-0.4c0.7,0,1.2,0.1,1.6,0.3c0.4,0.2,0.8,0.5,1.1,0.9c0.3,0.4,0.5,0.8,0.6,1.3s0.2,1.1,0.2,1.8V201.9z"/>
			<path class="st1" d="M86.3,201.9c0,0.1,0,0.1,0,0.1c0,0-0.1,0.1-0.1,0.1c-0.1,0-0.2,0.1-0.3,0.1c-0.1,0-0.3,0-0.4,0
				c-0.2,0-0.3,0-0.4,0c-0.1,0-0.2,0-0.3-0.1c-0.1,0-0.1-0.1-0.1-0.1c0,0,0-0.1,0-0.1V196c0-0.4,0-0.8-0.1-1.1
				c-0.1-0.3-0.2-0.6-0.3-0.9c-0.2-0.2-0.4-0.4-0.6-0.6c-0.2-0.1-0.5-0.2-0.9-0.2c-0.4,0-0.8,0.2-1.2,0.5s-0.9,0.8-1.4,1.4v6.8
				c0,0.1,0,0.1,0,0.1c0,0-0.1,0.1-0.1,0.1c-0.1,0-0.2,0.1-0.3,0.1c-0.1,0-0.3,0-0.4,0c-0.2,0-0.3,0-0.4,0c-0.1,0-0.2,0-0.3-0.1
				c-0.1,0-0.1-0.1-0.1-0.1c0,0,0-0.1,0-0.1V196c0-0.4,0-0.8-0.1-1.1c-0.1-0.3-0.2-0.6-0.4-0.9c-0.2-0.2-0.4-0.4-0.6-0.6
				c-0.2-0.1-0.5-0.2-0.9-0.2c-0.4,0-0.8,0.2-1.2,0.5c-0.4,0.3-0.9,0.8-1.4,1.4v6.8c0,0.1,0,0.1,0,0.1c0,0-0.1,0.1-0.1,0.1
				c-0.1,0-0.2,0.1-0.3,0.1s-0.3,0-0.4,0c-0.2,0-0.3,0-0.4,0c-0.1,0-0.2,0-0.3-0.1c-0.1,0-0.1-0.1-0.1-0.1s0-0.1,0-0.1v-9.8
				c0-0.1,0-0.1,0-0.1c0,0,0.1-0.1,0.1-0.1c0.1,0,0.1-0.1,0.2-0.1c0.1,0,0.2,0,0.4,0c0.2,0,0.3,0,0.4,0c0.1,0,0.2,0,0.2,0.1
				c0.1,0,0.1,0.1,0.1,0.1c0,0,0,0.1,0,0.1v1.3c0.5-0.6,1.1-1.1,1.6-1.4c0.5-0.3,1-0.4,1.6-0.4c0.4,0,0.8,0,1.1,0.1
				c0.3,0.1,0.6,0.2,0.9,0.4c0.2,0.2,0.5,0.4,0.6,0.6c0.2,0.2,0.3,0.5,0.4,0.8c0.3-0.4,0.6-0.7,0.9-0.9c0.3-0.2,0.6-0.4,0.8-0.6
				c0.3-0.2,0.5-0.3,0.8-0.3c0.3-0.1,0.5-0.1,0.8-0.1c0.6,0,1.2,0.1,1.6,0.3c0.4,0.2,0.8,0.5,1,0.9c0.3,0.4,0.5,0.8,0.6,1.3
				c0.1,0.5,0.2,1,0.2,1.6V201.9z"/>
			<path class="st1" d="M97.9,196.6c0,0.3-0.1,0.5-0.2,0.6c-0.1,0.1-0.3,0.2-0.5,0.2h-6.4c0,0.5,0.1,1,0.2,1.5
				c0.1,0.4,0.3,0.8,0.5,1.1c0.3,0.3,0.6,0.5,1,0.7s0.9,0.2,1.5,0.2c0.5,0,0.9,0,1.2-0.1c0.4-0.1,0.7-0.2,0.9-0.3
				c0.3-0.1,0.5-0.2,0.7-0.3c0.2-0.1,0.3-0.1,0.4-0.1c0,0,0.1,0,0.1,0c0,0,0.1,0.1,0.1,0.1c0,0,0,0.1,0,0.2c0,0.1,0,0.2,0,0.3
				c0,0.1,0,0.2,0,0.2c0,0.1,0,0.1,0,0.2c0,0.1,0,0.1-0.1,0.1c0,0-0.1,0.1-0.1,0.1s-0.2,0.1-0.4,0.2c-0.2,0.1-0.4,0.2-0.8,0.3
				c-0.3,0.1-0.7,0.2-1.1,0.2c-0.4,0.1-0.8,0.1-1.3,0.1c-0.8,0-1.5-0.1-2.1-0.3s-1.1-0.6-1.5-1c-0.4-0.4-0.7-1-0.9-1.7
				c-0.2-0.7-0.3-1.4-0.3-2.3c0-0.8,0.1-1.6,0.3-2.3s0.5-1.2,0.9-1.7c0.4-0.5,0.9-0.8,1.5-1.1c0.6-0.2,1.2-0.4,1.9-0.4
				c0.8,0,1.4,0.1,2,0.4c0.5,0.2,1,0.6,1.3,1s0.6,0.9,0.8,1.5c0.2,0.6,0.2,1.2,0.2,1.8V196.6z M96.1,196.1c0-0.9-0.2-1.7-0.6-2.2
				c-0.4-0.5-1.1-0.8-2-0.8c-0.4,0-0.8,0.1-1.2,0.2c-0.3,0.2-0.6,0.4-0.8,0.7c-0.2,0.3-0.4,0.6-0.5,1c-0.1,0.4-0.2,0.7-0.2,1.1H96.1
				z"/>
			<path class="st1" d="M109,201.9c0,0.1,0,0.1,0,0.1c0,0-0.1,0.1-0.1,0.1c-0.1,0-0.2,0.1-0.3,0.1c-0.1,0-0.3,0-0.4,0
				c-0.2,0-0.3,0-0.4,0c-0.1,0-0.2,0-0.3-0.1c-0.1,0-0.1-0.1-0.1-0.1c0,0,0-0.1,0-0.1v-5.7c0-0.6,0-1-0.1-1.3
				c-0.1-0.3-0.2-0.6-0.4-0.9c-0.2-0.2-0.4-0.4-0.6-0.6c-0.3-0.1-0.6-0.2-0.9-0.2c-0.4,0-0.9,0.2-1.3,0.5c-0.4,0.3-0.9,0.8-1.4,1.4
				v6.8c0,0.1,0,0.1,0,0.1s-0.1,0.1-0.1,0.1c-0.1,0-0.2,0.1-0.3,0.1c-0.1,0-0.3,0-0.4,0c-0.2,0-0.3,0-0.4,0c-0.1,0-0.2,0-0.3-0.1
				s-0.1-0.1-0.1-0.1c0,0,0-0.1,0-0.1v-9.8c0-0.1,0-0.1,0-0.1c0,0,0.1-0.1,0.1-0.1c0.1,0,0.2-0.1,0.3-0.1c0.1,0,0.2,0,0.4,0
				c0.2,0,0.3,0,0.4,0c0.1,0,0.2,0,0.2,0.1c0.1,0,0.1,0.1,0.1,0.1c0,0,0,0.1,0,0.1v1.3c0.5-0.6,1.1-1.1,1.6-1.4
				c0.5-0.3,1.1-0.4,1.7-0.4c0.7,0,1.2,0.1,1.6,0.3c0.4,0.2,0.8,0.5,1.1,0.9c0.3,0.4,0.5,0.8,0.6,1.3c0.1,0.5,0.2,1.1,0.2,1.8V201.9
				z"/>
			<path class="st1" d="M121.3,196.9c0,0.8-0.1,1.5-0.3,2.2s-0.5,1.2-0.9,1.7s-0.9,0.9-1.6,1.1c-0.6,0.3-1.3,0.4-2.2,0.4
				c-0.8,0-1.5-0.1-2.1-0.4c-0.6-0.2-1.1-0.6-1.5-1s-0.7-1-0.9-1.7c-0.2-0.7-0.3-1.4-0.3-2.2c0-0.8,0.1-1.5,0.3-2.2s0.5-1.2,0.9-1.7
				c0.4-0.5,0.9-0.9,1.6-1.1c0.6-0.3,1.3-0.4,2.2-0.4c0.8,0,1.5,0.1,2.1,0.4c0.6,0.2,1.1,0.6,1.5,1c0.4,0.5,0.7,1,0.9,1.7
				C121.2,195.4,121.3,196.1,121.3,196.9z M119.5,197.1c0-0.5,0-1-0.1-1.5c-0.1-0.5-0.3-0.9-0.5-1.2c-0.2-0.4-0.5-0.6-0.9-0.8
				c-0.4-0.2-0.9-0.3-1.4-0.3c-0.5,0-1,0.1-1.4,0.3c-0.4,0.2-0.7,0.5-0.9,0.8c-0.2,0.3-0.4,0.7-0.6,1.2c-0.1,0.5-0.2,1-0.2,1.5
				c0,0.5,0,1,0.1,1.5c0.1,0.5,0.3,0.9,0.5,1.2c0.2,0.4,0.5,0.6,0.9,0.8c0.4,0.2,0.9,0.3,1.4,0.3c0.5,0,1-0.1,1.4-0.3s0.7-0.5,1-0.8
				c0.2-0.3,0.4-0.7,0.5-1.2C119.4,198.1,119.5,197.6,119.5,197.1z"/>
			<path class="st1" d="M130.1,199.3c0,0.5-0.1,0.9-0.3,1.3c-0.2,0.4-0.4,0.7-0.8,1c-0.3,0.3-0.7,0.5-1.2,0.6
				c-0.5,0.1-1,0.2-1.6,0.2c-0.3,0-0.7,0-1-0.1c-0.3-0.1-0.6-0.1-0.8-0.2s-0.5-0.2-0.6-0.3c-0.2-0.1-0.3-0.2-0.4-0.2
				c-0.1-0.1-0.1-0.2-0.2-0.3c0-0.1-0.1-0.3-0.1-0.5c0-0.1,0-0.3,0-0.3c0-0.1,0-0.2,0.1-0.2c0-0.1,0.1-0.1,0.1-0.1c0,0,0.1,0,0.1,0
				c0.1,0,0.2,0,0.4,0.1c0.2,0.1,0.3,0.2,0.6,0.3c0.2,0.1,0.5,0.2,0.8,0.3c0.3,0.1,0.7,0.1,1.1,0.1c0.3,0,0.6,0,0.8-0.1
				c0.2-0.1,0.5-0.2,0.6-0.3c0.2-0.1,0.3-0.3,0.4-0.5c0.1-0.2,0.1-0.4,0.1-0.7c0-0.3-0.1-0.5-0.2-0.7c-0.1-0.2-0.3-0.4-0.6-0.5
				c-0.2-0.1-0.5-0.3-0.8-0.4c-0.3-0.1-0.6-0.2-0.9-0.4c-0.3-0.1-0.6-0.3-0.9-0.4c-0.3-0.2-0.6-0.3-0.8-0.6
				c-0.2-0.2-0.4-0.5-0.6-0.8s-0.2-0.7-0.2-1.1c0-0.4,0.1-0.7,0.2-1.1c0.1-0.4,0.4-0.7,0.7-0.9c0.3-0.3,0.7-0.5,1.1-0.6
				c0.4-0.2,1-0.2,1.6-0.2c0.3,0,0.5,0,0.8,0.1s0.5,0.1,0.7,0.2c0.2,0.1,0.4,0.1,0.5,0.2c0.1,0.1,0.3,0.1,0.3,0.2
				c0.1,0.1,0.1,0.1,0.2,0.2c0,0,0,0.1,0.1,0.1c0,0.1,0,0.1,0,0.2c0,0.1,0,0.2,0,0.3c0,0.1,0,0.2,0,0.3c0,0.1,0,0.2-0.1,0.2
				c0,0.1-0.1,0.1-0.1,0.1c0,0-0.1,0-0.1,0c-0.1,0-0.2,0-0.3-0.1c-0.1-0.1-0.3-0.2-0.5-0.3c-0.2-0.1-0.4-0.2-0.7-0.3
				c-0.3-0.1-0.6-0.1-0.9-0.1c-0.3,0-0.6,0-0.8,0.1c-0.2,0.1-0.4,0.2-0.6,0.3c-0.2,0.1-0.3,0.3-0.3,0.4c-0.1,0.2-0.1,0.4-0.1,0.6
				c0,0.3,0.1,0.5,0.2,0.7c0.1,0.2,0.3,0.4,0.6,0.5c0.2,0.1,0.5,0.3,0.8,0.4c0.3,0.1,0.6,0.2,0.9,0.4c0.3,0.1,0.6,0.3,0.9,0.4
				c0.3,0.2,0.6,0.3,0.8,0.6c0.2,0.2,0.4,0.5,0.6,0.8C130,198.5,130.1,198.8,130.1,199.3z"/>
			<path class="st1" d="M146.2,191.9c0.2,0,0.4,0,0.4,0.1c0.1,0.1,0.1,0.2,0.1,0.4v9.5c0,0.1,0,0.1,0,0.1s-0.1,0.1-0.1,0.1
				s-0.2,0.1-0.3,0.1c-0.1,0-0.3,0-0.4,0c-0.2,0-0.3,0-0.4,0c-0.1,0-0.2,0-0.3-0.1c-0.1,0-0.1-0.1-0.1-0.1c0,0,0-0.1,0-0.1v-8.6h-5
				v5.4c0,0.7,0.1,1.2,0.3,1.5c0.2,0.3,0.6,0.5,1.1,0.5c0.2,0,0.3,0,0.4,0c0.1,0,0.2-0.1,0.3-0.1c0.1,0,0.2-0.1,0.3-0.1
				c0.1,0,0.1,0,0.2,0c0,0,0.1,0,0.1,0c0,0,0.1,0.1,0.1,0.1c0,0,0,0.1,0,0.2c0,0.1,0,0.2,0,0.3c0,0.2,0,0.4,0,0.5
				c0,0.1-0.1,0.2-0.1,0.3c-0.1,0.1-0.1,0.1-0.3,0.2c-0.1,0-0.2,0.1-0.4,0.1c-0.1,0-0.3,0.1-0.5,0.1c-0.2,0-0.3,0-0.5,0
				c-0.5,0-0.9-0.1-1.3-0.2c-0.4-0.1-0.7-0.3-0.9-0.6c-0.2-0.3-0.4-0.6-0.5-1s-0.2-0.9-0.2-1.5v-5.7h-1.4c-0.1,0-0.2-0.1-0.3-0.2
				c-0.1-0.1-0.1-0.3-0.1-0.6c0-0.1,0-0.3,0-0.3c0-0.1,0-0.2,0.1-0.2c0-0.1,0.1-0.1,0.1-0.1c0,0,0.1,0,0.2,0h1.4v-2.3
				c0,0,0-0.1,0-0.1c0,0,0.1-0.1,0.1-0.1c0.1,0,0.2-0.1,0.3-0.1c0.1,0,0.3,0,0.4,0c0.2,0,0.3,0,0.4,0c0.1,0,0.2,0,0.3,0.1
				c0.1,0,0.1,0.1,0.1,0.1s0,0.1,0,0.1v2.3H146.2z M146.9,188.9c0,0.4-0.1,0.7-0.2,0.9c-0.2,0.2-0.5,0.2-0.9,0.2
				c-0.4,0-0.7-0.1-0.9-0.2c-0.2-0.1-0.2-0.4-0.2-0.8c0-0.4,0.1-0.7,0.2-0.9c0.2-0.2,0.5-0.2,0.9-0.2c0.4,0,0.7,0.1,0.9,0.2
				C146.9,188.2,146.9,188.5,146.9,188.9z"/>
			<path class="st1" d="M158.4,196.6c0,0.3-0.1,0.5-0.2,0.6c-0.1,0.1-0.3,0.2-0.5,0.2h-6.4c0,0.5,0.1,1,0.2,1.5
				c0.1,0.4,0.3,0.8,0.5,1.1c0.3,0.3,0.6,0.5,1,0.7s0.9,0.2,1.5,0.2c0.5,0,0.9,0,1.2-0.1c0.4-0.1,0.7-0.2,0.9-0.3
				c0.3-0.1,0.5-0.2,0.7-0.3c0.2-0.1,0.3-0.1,0.4-0.1c0.1,0,0.1,0,0.1,0c0,0,0.1,0.1,0.1,0.1c0,0,0,0.1,0,0.2c0,0.1,0,0.2,0,0.3
				c0,0.1,0,0.2,0,0.2c0,0.1,0,0.1,0,0.2c0,0.1,0,0.1-0.1,0.1c0,0-0.1,0.1-0.1,0.1c0,0-0.2,0.1-0.4,0.2c-0.2,0.1-0.4,0.2-0.8,0.3
				c-0.3,0.1-0.7,0.2-1.1,0.2s-0.8,0.1-1.3,0.1c-0.8,0-1.5-0.1-2.1-0.3s-1.1-0.6-1.5-1c-0.4-0.4-0.7-1-0.9-1.7
				c-0.2-0.7-0.3-1.4-0.3-2.3c0-0.8,0.1-1.6,0.3-2.3s0.5-1.2,0.9-1.7c0.4-0.5,0.9-0.8,1.5-1.1c0.6-0.2,1.2-0.4,1.9-0.4
				c0.8,0,1.4,0.1,2,0.4c0.5,0.2,1,0.6,1.3,1c0.3,0.4,0.6,0.9,0.8,1.5s0.2,1.2,0.2,1.8V196.6z M156.6,196.1c0-0.9-0.2-1.7-0.6-2.2
				c-0.4-0.5-1.1-0.8-2-0.8c-0.4,0-0.8,0.1-1.2,0.2c-0.3,0.2-0.6,0.4-0.8,0.7c-0.2,0.3-0.4,0.6-0.5,1c-0.1,0.4-0.2,0.7-0.2,1.1
				H156.6z"/>
			<path class="st1" d="M175.6,201.9c0,0.1,0,0.1,0,0.1c0,0-0.1,0.1-0.1,0.1c-0.1,0-0.2,0.1-0.3,0.1c-0.1,0-0.3,0-0.4,0
				c-0.2,0-0.3,0-0.4,0c-0.1,0-0.2,0-0.3-0.1c-0.1,0-0.1-0.1-0.1-0.1c0,0,0-0.1,0-0.1V196c0-0.4,0-0.8-0.1-1.1
				c-0.1-0.3-0.2-0.6-0.3-0.9c-0.2-0.2-0.4-0.4-0.6-0.6c-0.2-0.1-0.5-0.2-0.9-0.2c-0.4,0-0.8,0.2-1.2,0.5s-0.9,0.8-1.4,1.4v6.8
				c0,0.1,0,0.1,0,0.1c0,0-0.1,0.1-0.1,0.1c-0.1,0-0.2,0.1-0.3,0.1c-0.1,0-0.3,0-0.4,0c-0.2,0-0.3,0-0.4,0s-0.2,0-0.3-0.1
				c-0.1,0-0.1-0.1-0.1-0.1c0,0,0-0.1,0-0.1V196c0-0.4,0-0.8-0.1-1.1c-0.1-0.3-0.2-0.6-0.4-0.9c-0.2-0.2-0.4-0.4-0.6-0.6
				c-0.2-0.1-0.5-0.2-0.9-0.2c-0.4,0-0.8,0.2-1.2,0.5s-0.9,0.8-1.4,1.4v6.8c0,0.1,0,0.1,0,0.1c0,0-0.1,0.1-0.1,0.1s-0.2,0.1-0.3,0.1
				c-0.1,0-0.3,0-0.4,0c-0.2,0-0.3,0-0.4,0c-0.1,0-0.2,0-0.3-0.1c-0.1,0-0.1-0.1-0.1-0.1c0,0,0-0.1,0-0.1v-9.8c0-0.1,0-0.1,0-0.1
				c0,0,0.1-0.1,0.1-0.1c0.1,0,0.1-0.1,0.3-0.1c0.1,0,0.2,0,0.4,0c0.2,0,0.3,0,0.4,0c0.1,0,0.2,0,0.2,0.1c0.1,0,0.1,0.1,0.1,0.1
				c0,0,0,0.1,0,0.1v1.3c0.5-0.6,1.1-1.1,1.6-1.4c0.5-0.3,1-0.4,1.6-0.4c0.4,0,0.8,0,1.1,0.1c0.3,0.1,0.6,0.2,0.9,0.4
				c0.2,0.2,0.5,0.4,0.6,0.6c0.2,0.2,0.3,0.5,0.4,0.8c0.3-0.4,0.6-0.7,0.9-0.9c0.3-0.2,0.6-0.4,0.8-0.6c0.3-0.2,0.5-0.3,0.8-0.3
				s0.5-0.1,0.8-0.1c0.6,0,1.2,0.1,1.6,0.3c0.4,0.2,0.8,0.5,1,0.9c0.3,0.4,0.5,0.8,0.6,1.3c0.1,0.5,0.2,1,0.2,1.6V201.9z"/>
			<path class="st1" d="M187.8,196.9c0,0.9-0.1,1.6-0.3,2.3c-0.2,0.7-0.5,1.3-0.8,1.7c-0.4,0.5-0.8,0.8-1.3,1.1
				c-0.5,0.3-1.1,0.4-1.8,0.4c-0.3,0-0.6,0-0.8-0.1c-0.2-0.1-0.5-0.1-0.7-0.3c-0.2-0.1-0.5-0.3-0.7-0.5c-0.2-0.2-0.5-0.4-0.7-0.7
				v4.9c0,0.1,0,0.1,0,0.2s-0.1,0.1-0.1,0.1c-0.1,0-0.2,0.1-0.3,0.1c-0.1,0-0.3,0-0.4,0c-0.2,0-0.3,0-0.4,0c-0.1,0-0.2,0-0.3-0.1
				c-0.1,0-0.1-0.1-0.1-0.1c0,0,0-0.1,0-0.2v-13.6c0-0.1,0-0.1,0-0.2c0,0,0.1-0.1,0.1-0.1c0.1,0,0.2,0,0.3-0.1c0.1,0,0.2,0,0.4,0
				c0.2,0,0.3,0,0.4,0c0.1,0,0.2,0,0.2,0.1c0.1,0,0.1,0.1,0.1,0.1c0,0,0,0.1,0,0.2v1.3c0.3-0.3,0.6-0.6,0.9-0.8
				c0.3-0.2,0.5-0.4,0.8-0.6c0.3-0.1,0.6-0.3,0.9-0.3c0.3-0.1,0.6-0.1,0.9-0.1c0.7,0,1.3,0.1,1.8,0.4c0.5,0.3,0.9,0.7,1.2,1.1
				c0.3,0.5,0.5,1,0.7,1.7C187.7,195.5,187.8,196.2,187.8,196.9z M185.9,197.1c0-0.5,0-1-0.1-1.4c-0.1-0.5-0.2-0.9-0.4-1.2
				c-0.2-0.4-0.4-0.7-0.7-0.9c-0.3-0.2-0.7-0.3-1.2-0.3c-0.2,0-0.5,0-0.7,0.1c-0.2,0.1-0.5,0.2-0.7,0.3c-0.2,0.1-0.5,0.3-0.7,0.6
				c-0.3,0.2-0.5,0.5-0.8,0.9v3.9c0.5,0.6,1,1.1,1.4,1.4c0.4,0.3,0.9,0.5,1.4,0.5c0.5,0,0.8-0.1,1.2-0.3c0.3-0.2,0.6-0.5,0.8-0.9
				c0.2-0.4,0.3-0.8,0.4-1.2C185.9,198,185.9,197.5,185.9,197.1z"/>
			<path class="st1" d="M199.6,196.9c0,0.8-0.1,1.5-0.3,2.2c-0.2,0.7-0.5,1.2-0.9,1.7s-0.9,0.9-1.6,1.1c-0.6,0.3-1.3,0.4-2.2,0.4
				c-0.8,0-1.5-0.1-2.1-0.4c-0.6-0.2-1.1-0.6-1.5-1c-0.4-0.5-0.7-1-0.9-1.7c-0.2-0.7-0.3-1.4-0.3-2.2c0-0.8,0.1-1.5,0.3-2.2
				s0.5-1.2,0.9-1.7s0.9-0.9,1.6-1.1c0.6-0.3,1.3-0.4,2.2-0.4c0.8,0,1.5,0.1,2.1,0.4c0.6,0.2,1.1,0.6,1.5,1c0.4,0.5,0.7,1,0.9,1.7
				C199.5,195.4,199.6,196.1,199.6,196.9z M197.7,197.1c0-0.5-0.1-1-0.1-1.5c-0.1-0.5-0.3-0.9-0.5-1.2c-0.2-0.4-0.5-0.6-0.9-0.8
				c-0.4-0.2-0.9-0.3-1.4-0.3c-0.5,0-1,0.1-1.4,0.3s-0.7,0.5-0.9,0.8c-0.2,0.3-0.4,0.7-0.6,1.2c-0.1,0.5-0.2,1-0.2,1.5
				c0,0.5,0,1,0.1,1.5c0.1,0.5,0.3,0.9,0.5,1.2s0.5,0.6,0.9,0.8c0.4,0.2,0.9,0.3,1.4,0.3c0.5,0,1-0.1,1.4-0.3
				c0.4-0.2,0.7-0.5,0.9-0.8c0.2-0.3,0.4-0.7,0.5-1.2C197.6,198.1,197.7,197.6,197.7,197.1z"/>
			<path class="st1" d="M204.5,201c0,0.5-0.1,0.9-0.3,1c-0.2,0.2-0.5,0.3-0.9,0.3c-0.4,0-0.7-0.1-0.9-0.2c-0.2-0.2-0.2-0.5-0.2-1
				c0-0.5,0.1-0.9,0.3-1c0.2-0.2,0.5-0.3,0.9-0.3c0.4,0,0.7,0.1,0.9,0.2C204.4,200.2,204.5,200.5,204.5,201z"/>
		</g>
	</g>
</g>
</svg>
