<?xml version="1.0" encoding="utf-8"?>
<!-- Generator: Adobe Illustrator 20.1.0, SVG Export Plug-In . SVG Version: 6.00 Build 0)  -->
<svg version="1.1" id="Capa_1" xmlns="http://www.w3.org/2000/svg" xmlns:xlink="http://www.w3.org/1999/xlink" x="0px" y="0px"
	 viewBox="0 0 243 244.2" style="enable-background:new 0 0 243 244.2;" xml:space="preserve">
<style type="text/css">
	.st0{fill:#FFFFFF;}
	.st1{fill:#0069B4;}
	.st2{fill:url(#XMLID_16_);}
	.st3{fill:url(#XMLID_17_);}
	.st4{fill:url(#XMLID_18_);}
	.st5{fill:url(#XMLID_19_);}
	.st6{fill:url(#XMLID_20_);}
	.st7{fill:url(#XMLID_23_);}
	.st8{fill:url(#XMLID_24_);}
	.st9{fill:url(#XMLID_26_);}
	.st10{fill:url(#XMLID_27_);}
	.st11{fill:url(#XMLID_28_);}
	.st12{fill:url(#XMLID_31_);}
	.st13{fill:url(#XMLID_32_);}
	.st14{fill:url(#XMLID_33_);}
	.st15{fill:url(#XMLID_34_);}
	.st16{fill:url(#XMLID_35_);}
	.st17{fill:url(#XMLID_36_);}
	.st18{fill:url(#XMLID_37_);}
	.st19{fill:url(#XMLID_38_);}
	.st20{fill:#FCEA10;}
	.st21{fill:#2D9CBF;}
	.st22{fill:url(#XMLID_39_);}
	.st23{fill:url(#XMLID_40_);}
	.st24{fill:url(#XMLID_41_);}
	.st25{fill:url(#XMLID_42_);}
	.st26{fill:url(#XMLID_43_);}
	.st27{fill:url(#XMLID_45_);}
	.st28{fill:url(#XMLID_47_);}
	.st29{fill:url(#XMLID_69_);}
</style>
<g>
	<circle id="XMLID_51_" class="st0" cx="121.5" cy="122.1" r="121.5"/>
	<g id="XMLID_368_">
		<path id="XMLID_369_" class="st1" d="M80.2,137.8c0,0.1,0,0.3,0,0.4c0,0.1,0,0.2-0.1,0.2c0,0.1-0.1,0.1-0.1,0.1c0,0-0.1,0-0.1,0
			h-5.1v4.8h4.9c0.1,0,0.1,0,0.1,0c0,0,0.1,0.1,0.1,0.1c0,0.1,0.1,0.1,0.1,0.2c0,0.1,0,0.2,0,0.4c0,0.1,0,0.3,0,0.4
			c0,0.1,0,0.2-0.1,0.2c0,0.1-0.1,0.1-0.1,0.1c0,0-0.1,0-0.1,0h-4.9v5.8c0,0,0,0.1,0,0.1c0,0-0.1,0.1-0.2,0.1c-0.1,0-0.2,0-0.3,0.1
			c-0.1,0-0.3,0-0.5,0c-0.2,0-0.3,0-0.4,0c-0.1,0-0.2,0-0.3-0.1c-0.1,0-0.1-0.1-0.2-0.1c0,0,0-0.1,0-0.1v-13c0-0.3,0.1-0.5,0.2-0.6
			c0.1-0.1,0.3-0.2,0.5-0.2h6.3c0.1,0,0.1,0,0.1,0c0,0,0.1,0.1,0.1,0.1c0,0.1,0.1,0.1,0.1,0.3C80.2,137.5,80.2,137.6,80.2,137.8z"/>
		<path id="XMLID_371_" class="st1" d="M89.6,150.7c0,0.1,0,0.2-0.1,0.2c-0.1,0-0.1,0.1-0.2,0.1c-0.1,0-0.3,0-0.4,0
			c-0.2,0-0.3,0-0.4,0c-0.1,0-0.2-0.1-0.2-0.1c-0.1,0-0.1-0.1-0.1-0.2v-1c-0.4,0.5-0.9,0.8-1.4,1.1c-0.5,0.3-1.1,0.4-1.7,0.4
			c-0.5,0-1-0.1-1.4-0.2c-0.4-0.1-0.8-0.3-1.1-0.6c-0.3-0.3-0.5-0.6-0.7-0.9c-0.2-0.4-0.2-0.8-0.2-1.3c0-0.5,0.1-1,0.3-1.4
			c0.2-0.4,0.5-0.7,1-1c0.4-0.3,0.9-0.5,1.5-0.6c0.6-0.1,1.3-0.2,2-0.2h1.3v-0.8c0-0.4,0-0.7-0.1-1c-0.1-0.3-0.2-0.5-0.4-0.7
			c-0.2-0.2-0.4-0.3-0.7-0.4c-0.3-0.1-0.6-0.1-1-0.1c-0.4,0-0.8,0.1-1.2,0.2c-0.4,0.1-0.7,0.2-0.9,0.3c-0.3,0.1-0.5,0.2-0.7,0.3
			c-0.2,0.1-0.3,0.2-0.4,0.2c-0.1,0-0.1,0-0.2,0c0,0-0.1-0.1-0.1-0.1c0-0.1-0.1-0.1-0.1-0.2c0-0.1,0-0.2,0-0.3c0-0.2,0-0.3,0-0.4
			s0.1-0.2,0.2-0.3c0.1-0.1,0.3-0.2,0.5-0.3c0.2-0.1,0.5-0.2,0.8-0.3c0.3-0.1,0.7-0.2,1-0.3c0.4-0.1,0.7-0.1,1.1-0.1
			c0.7,0,1.3,0.1,1.8,0.2c0.5,0.2,0.9,0.4,1.2,0.7c0.3,0.3,0.5,0.7,0.7,1.1c0.1,0.5,0.2,1,0.2,1.6V150.7z M87.8,146.3h-1.5
			c-0.5,0-0.9,0-1.3,0.1s-0.7,0.2-0.9,0.4c-0.2,0.2-0.4,0.4-0.5,0.6c-0.1,0.2-0.2,0.5-0.2,0.8c0,0.5,0.2,0.9,0.5,1.2
			c0.3,0.3,0.8,0.4,1.3,0.4c0.5,0,0.9-0.1,1.3-0.4c0.4-0.2,0.8-0.6,1.3-1.1V146.3z"/>
		<path id="XMLID_374_" class="st1" d="M100.5,140.9C100.5,141,100.5,141,100.5,140.9c0,0.1,0,0.2,0,0.2c0,0,0,0.1,0,0.1
			c0,0,0,0.1,0,0.1l-3.3,9.3c0,0.1-0.1,0.1-0.1,0.2c0,0.1-0.1,0.1-0.2,0.1c-0.1,0-0.2,0-0.4,0.1c-0.1,0-0.3,0-0.5,0
			c-0.2,0-0.4,0-0.5,0c-0.1,0-0.3,0-0.4-0.1c-0.1,0-0.2-0.1-0.2-0.1c-0.1-0.1-0.1-0.1-0.1-0.2l-3.3-9.3c0-0.1-0.1-0.2-0.1-0.2
			c0-0.1,0-0.1,0-0.1c0,0,0-0.1,0-0.1c0-0.1,0-0.1,0-0.2c0,0,0.1-0.1,0.1-0.1c0.1,0,0.2,0,0.3,0c0.1,0,0.3,0,0.4,0
			c0.2,0,0.4,0,0.5,0c0.1,0,0.2,0,0.3,0.1c0.1,0,0.1,0.1,0.2,0.1c0,0,0.1,0.1,0.1,0.2l2.8,8l0,0.1l0-0.1l2.7-8c0-0.1,0-0.1,0.1-0.2
			c0,0,0.1-0.1,0.2-0.1c0.1,0,0.2,0,0.3-0.1c0.1,0,0.3,0,0.5,0c0.2,0,0.3,0,0.4,0c0.1,0,0.2,0,0.3,0.1c0.1,0,0.1,0.1,0.1,0.1
			C100.5,140.8,100.5,140.9,100.5,140.9z"/>
		<path id="XMLID_376_" class="st1" d="M111.4,145.7c0,0.8-0.1,1.5-0.3,2.2c-0.2,0.7-0.5,1.2-0.9,1.7s-0.9,0.9-1.6,1.1
			c-0.6,0.3-1.3,0.4-2.2,0.4c-0.8,0-1.5-0.1-2.1-0.4c-0.6-0.2-1.1-0.6-1.5-1s-0.7-1-0.9-1.7c-0.2-0.7-0.3-1.4-0.3-2.2
			c0-0.8,0.1-1.5,0.3-2.2c0.2-0.7,0.5-1.2,0.9-1.7c0.4-0.5,0.9-0.9,1.6-1.1c0.6-0.3,1.3-0.4,2.2-0.4c0.8,0,1.5,0.1,2.1,0.4
			c0.6,0.2,1.1,0.6,1.5,1c0.4,0.5,0.7,1,0.9,1.7C111.3,144.2,111.4,144.9,111.4,145.7z M109.5,145.9c0-0.5,0-1-0.1-1.5
			c-0.1-0.5-0.3-0.9-0.5-1.2c-0.2-0.4-0.5-0.6-0.9-0.8c-0.4-0.2-0.9-0.3-1.4-0.3c-0.5,0-1,0.1-1.4,0.3s-0.7,0.5-0.9,0.8
			c-0.2,0.3-0.4,0.7-0.6,1.2c-0.1,0.5-0.2,1-0.2,1.5c0,0.5,0,1,0.1,1.5c0.1,0.5,0.3,0.9,0.5,1.2s0.5,0.6,0.9,0.8
			c0.4,0.2,0.9,0.3,1.4,0.3c0.5,0,1-0.1,1.4-0.3c0.4-0.2,0.7-0.5,1-0.8c0.2-0.3,0.4-0.7,0.5-1.2
			C109.5,146.9,109.5,146.4,109.5,145.9z"/>
		<path id="XMLID_379_" class="st1" d="M119.7,141.6c0,0.2,0,0.3,0,0.4c0,0.1,0,0.2,0,0.3c0,0.1,0,0.1-0.1,0.1c0,0-0.1,0-0.1,0
			c-0.1,0-0.1,0-0.2,0c-0.1,0-0.2-0.1-0.3-0.1c-0.1,0-0.2-0.1-0.4-0.1c-0.1,0-0.3,0-0.4,0c-0.2,0-0.4,0-0.5,0.1
			c-0.2,0.1-0.4,0.2-0.5,0.4c-0.2,0.2-0.4,0.4-0.6,0.7c-0.2,0.3-0.4,0.6-0.7,1v6.4c0,0.1,0,0.1,0,0.1c0,0-0.1,0.1-0.1,0.1
			c-0.1,0-0.2,0.1-0.3,0.1c-0.1,0-0.3,0-0.4,0c-0.2,0-0.3,0-0.4,0c-0.1,0-0.2,0-0.3-0.1c-0.1,0-0.1-0.1-0.1-0.1c0,0,0-0.1,0-0.1V141
			c0-0.1,0-0.1,0-0.1c0,0,0.1-0.1,0.1-0.1c0.1,0,0.1-0.1,0.3-0.1c0.1,0,0.2,0,0.4,0c0.2,0,0.3,0,0.4,0c0.1,0,0.2,0,0.2,0.1
			c0.1,0,0.1,0.1,0.1,0.1c0,0,0,0.1,0,0.1v1.4c0.3-0.4,0.5-0.7,0.8-1c0.2-0.2,0.5-0.4,0.7-0.6c0.2-0.1,0.4-0.2,0.6-0.3
			c0.2-0.1,0.4-0.1,0.6-0.1c0.1,0,0.2,0,0.3,0c0.1,0,0.2,0,0.4,0.1c0.1,0,0.2,0.1,0.4,0.1c0.1,0,0.2,0.1,0.2,0.1
			c0,0,0.1,0.1,0.1,0.1c0,0,0,0.1,0,0.1c0,0,0,0.1,0,0.2C119.7,141.3,119.7,141.4,119.7,141.6z"/>
		<path id="XMLID_381_" class="st1" d="M129.8,145.4c0,0.3-0.1,0.5-0.2,0.6c-0.1,0.1-0.3,0.2-0.5,0.2h-6.4c0,0.5,0.1,1,0.2,1.5
			c0.1,0.4,0.3,0.8,0.5,1.1c0.3,0.3,0.6,0.5,1,0.7c0.4,0.2,0.9,0.2,1.5,0.2c0.5,0,0.9,0,1.2-0.1c0.4-0.1,0.7-0.2,0.9-0.3
			c0.3-0.1,0.5-0.2,0.7-0.3c0.2-0.1,0.3-0.1,0.4-0.1c0.1,0,0.1,0,0.1,0c0,0,0.1,0.1,0.1,0.1c0,0,0,0.1,0,0.2c0,0.1,0,0.2,0,0.3
			c0,0.1,0,0.2,0,0.2c0,0.1,0,0.1,0,0.2c0,0.1,0,0.1-0.1,0.1c0,0-0.1,0.1-0.1,0.1c0,0-0.2,0.1-0.4,0.2c-0.2,0.1-0.4,0.2-0.8,0.3
			c-0.3,0.1-0.7,0.2-1.1,0.2c-0.4,0.1-0.8,0.1-1.3,0.1c-0.8,0-1.5-0.1-2.1-0.3s-1.1-0.6-1.5-1c-0.4-0.4-0.7-1-0.9-1.7
			c-0.2-0.7-0.3-1.4-0.3-2.3c0-0.8,0.1-1.6,0.3-2.3c0.2-0.7,0.5-1.2,0.9-1.7c0.4-0.5,0.9-0.8,1.5-1.1c0.6-0.2,1.2-0.4,1.9-0.4
			c0.8,0,1.4,0.1,2,0.4c0.5,0.2,1,0.6,1.3,1c0.3,0.4,0.6,0.9,0.8,1.5c0.2,0.6,0.2,1.2,0.2,1.8V145.4z M128,144.9
			c0-0.9-0.2-1.7-0.6-2.2c-0.4-0.5-1.1-0.8-2-0.8c-0.4,0-0.8,0.1-1.2,0.2c-0.3,0.2-0.6,0.4-0.8,0.7c-0.2,0.3-0.4,0.6-0.5,1
			c-0.1,0.4-0.2,0.7-0.2,1.1H128z"/>
		<path id="XMLID_384_" class="st1" d="M139.5,149.2c0,0.1,0,0.2,0,0.3c0,0.1,0,0.2,0,0.2c0,0.1,0,0.1-0.1,0.2c0,0-0.1,0.1-0.2,0.2
			c-0.1,0.1-0.2,0.2-0.5,0.3c-0.2,0.1-0.5,0.3-0.7,0.4c-0.3,0.1-0.6,0.2-0.9,0.3c-0.3,0.1-0.6,0.1-1,0.1c-0.7,0-1.3-0.1-1.9-0.3
			c-0.5-0.2-1-0.6-1.4-1c-0.4-0.4-0.6-1-0.8-1.6c-0.2-0.6-0.3-1.4-0.3-2.2c0-1,0.1-1.8,0.4-2.5c0.2-0.7,0.6-1.3,1-1.7
			c0.4-0.4,0.9-0.8,1.4-1c0.6-0.2,1.2-0.3,1.8-0.3c0.3,0,0.6,0,0.9,0.1c0.3,0.1,0.6,0.1,0.8,0.2c0.2,0.1,0.5,0.2,0.7,0.3
			c0.2,0.1,0.3,0.2,0.4,0.3c0.1,0.1,0.1,0.2,0.2,0.2c0,0.1,0.1,0.1,0.1,0.2c0,0.1,0,0.1,0,0.2c0,0.1,0,0.2,0,0.3
			c0,0.3,0,0.5-0.1,0.6c-0.1,0.1-0.1,0.2-0.2,0.2c-0.1,0-0.2-0.1-0.4-0.2c-0.1-0.1-0.3-0.3-0.5-0.4c-0.2-0.1-0.5-0.3-0.8-0.4
			c-0.3-0.1-0.7-0.2-1.1-0.2c-0.9,0-1.5,0.3-2,1c-0.5,0.7-0.7,1.6-0.7,2.9c0,0.6,0.1,1.2,0.2,1.7c0.1,0.5,0.3,0.9,0.5,1.2
			c0.2,0.3,0.5,0.6,0.9,0.7c0.3,0.2,0.7,0.2,1.2,0.2c0.4,0,0.8-0.1,1.1-0.2c0.3-0.1,0.6-0.3,0.8-0.4c0.2-0.2,0.4-0.3,0.6-0.4
			c0.2-0.1,0.3-0.2,0.4-0.2c0.1,0,0.1,0,0.1,0c0,0,0.1,0.1,0.1,0.1c0,0.1,0,0.2,0.1,0.3C139.5,149,139.5,149.1,139.5,149.2z"/>
		<path id="XMLID_386_" class="st1" d="M150.2,145.4c0,0.3-0.1,0.5-0.2,0.6c-0.1,0.1-0.3,0.2-0.5,0.2h-6.4c0,0.5,0.1,1,0.2,1.5
			c0.1,0.4,0.3,0.8,0.5,1.1c0.3,0.3,0.6,0.5,1,0.7c0.4,0.2,0.9,0.2,1.5,0.2c0.5,0,0.9,0,1.2-0.1c0.4-0.1,0.7-0.2,0.9-0.3
			c0.3-0.1,0.5-0.2,0.7-0.3c0.2-0.1,0.3-0.1,0.4-0.1c0.1,0,0.1,0,0.1,0c0,0,0.1,0.1,0.1,0.1c0,0,0,0.1,0,0.2c0,0.1,0,0.2,0,0.3
			c0,0.1,0,0.2,0,0.2c0,0.1,0,0.1,0,0.2c0,0.1,0,0.1-0.1,0.1c0,0-0.1,0.1-0.1,0.1c0,0-0.2,0.1-0.4,0.2c-0.2,0.1-0.4,0.2-0.8,0.3
			c-0.3,0.1-0.7,0.2-1.1,0.2c-0.4,0.1-0.8,0.1-1.3,0.1c-0.8,0-1.5-0.1-2.1-0.3s-1.1-0.6-1.5-1c-0.4-0.4-0.7-1-0.9-1.7
			c-0.2-0.7-0.3-1.4-0.3-2.3c0-0.8,0.1-1.6,0.3-2.3s0.5-1.2,0.9-1.7c0.4-0.5,0.9-0.8,1.5-1.1c0.6-0.2,1.2-0.4,1.9-0.4
			c0.8,0,1.4,0.1,2,0.4c0.5,0.2,1,0.6,1.3,1c0.3,0.4,0.6,0.9,0.8,1.5c0.2,0.6,0.2,1.2,0.2,1.8V145.4z M148.4,144.9
			c0-0.9-0.2-1.7-0.6-2.2c-0.4-0.5-1.1-0.8-2-0.8c-0.4,0-0.8,0.1-1.2,0.2c-0.3,0.2-0.6,0.4-0.8,0.7c-0.2,0.3-0.4,0.6-0.5,1
			c-0.1,0.4-0.2,0.7-0.2,1.1H148.4z"/>
		<path id="XMLID_389_" class="st1" d="M159.7,150.7c0,0.1,0,0.1,0,0.1c0,0-0.1,0.1-0.1,0.1s-0.2,0.1-0.3,0.1c-0.1,0-0.3,0-0.4,0
			c-0.2,0-0.3,0-0.4,0c-0.1,0-0.2,0-0.3-0.1c-0.1,0-0.1-0.1-0.1-0.1c0,0,0-0.1,0-0.1v-14.5c0-0.1,0-0.1,0-0.2c0,0,0.1-0.1,0.1-0.1
			c0.1,0,0.2-0.1,0.3-0.1c0.1,0,0.3,0,0.4,0c0.2,0,0.3,0,0.4,0c0.1,0,0.2,0,0.3,0.1c0.1,0,0.1,0.1,0.1,0.1c0,0,0,0.1,0,0.2V150.7z"
			/>
		<path id="XMLID_391_" class="st1" d="M170.4,150.7c0,0.1,0,0.2-0.1,0.2c-0.1,0-0.1,0.1-0.2,0.1c-0.1,0-0.3,0-0.4,0
			c-0.2,0-0.3,0-0.4,0c-0.1,0-0.2-0.1-0.2-0.1c-0.1,0-0.1-0.1-0.1-0.2v-1c-0.4,0.5-0.9,0.8-1.4,1.1c-0.5,0.3-1.1,0.4-1.7,0.4
			c-0.5,0-1-0.1-1.4-0.2c-0.4-0.1-0.8-0.3-1.1-0.6c-0.3-0.3-0.5-0.6-0.7-0.9c-0.2-0.4-0.2-0.8-0.2-1.3c0-0.5,0.1-1,0.3-1.4
			c0.2-0.4,0.5-0.7,1-1c0.4-0.3,0.9-0.5,1.5-0.6c0.6-0.1,1.3-0.2,2-0.2h1.3v-0.8c0-0.4,0-0.7-0.1-1c-0.1-0.3-0.2-0.5-0.4-0.7
			c-0.2-0.2-0.4-0.3-0.7-0.4c-0.3-0.1-0.6-0.1-1-0.1c-0.4,0-0.8,0.1-1.2,0.2c-0.4,0.1-0.7,0.2-0.9,0.3c-0.3,0.1-0.5,0.2-0.7,0.3
			s-0.3,0.2-0.4,0.2c-0.1,0-0.1,0-0.2,0c0,0-0.1-0.1-0.1-0.1c0-0.1-0.1-0.1-0.1-0.2c0-0.1,0-0.2,0-0.3c0-0.2,0-0.3,0-0.4
			c0-0.1,0.1-0.2,0.2-0.3c0.1-0.1,0.3-0.2,0.5-0.3c0.2-0.1,0.5-0.2,0.8-0.3c0.3-0.1,0.7-0.2,1-0.3c0.4-0.1,0.7-0.1,1.1-0.1
			c0.7,0,1.3,0.1,1.8,0.2c0.5,0.2,0.9,0.4,1.2,0.7c0.3,0.3,0.5,0.7,0.7,1.1s0.2,1,0.2,1.6V150.7z M168.6,146.3h-1.5
			c-0.5,0-0.9,0-1.3,0.1s-0.7,0.2-0.9,0.4c-0.2,0.2-0.4,0.4-0.5,0.6c-0.1,0.2-0.2,0.5-0.2,0.8c0,0.5,0.2,0.9,0.5,1.2
			c0.3,0.3,0.8,0.4,1.3,0.4c0.5,0,0.9-0.1,1.3-0.4c0.4-0.2,0.8-0.6,1.3-1.1V146.3z"/>
		<path id="XMLID_394_" class="st1" d="M78.2,173.2c0,0.1,0,0.1,0,0.2c0,0-0.1,0.1-0.1,0.1c-0.1,0-0.1,0-0.2,0.1c-0.1,0-0.2,0-0.4,0
			c-0.2,0-0.3,0-0.4,0s-0.2,0-0.2-0.1c-0.1,0-0.1-0.1-0.1-0.1c0,0,0-0.1,0-0.2v-1.3c-0.5,0.6-1,1-1.6,1.3c-0.6,0.3-1.2,0.5-1.8,0.5
			c-0.7,0-1.3-0.1-1.8-0.4c-0.5-0.3-0.9-0.7-1.2-1.1c-0.3-0.5-0.5-1-0.7-1.7c-0.1-0.6-0.2-1.3-0.2-2c0-0.8,0.1-1.6,0.3-2.3
			c0.2-0.7,0.4-1.3,0.8-1.7c0.4-0.5,0.8-0.8,1.3-1.1c0.5-0.3,1.1-0.4,1.8-0.4c0.6,0,1.1,0.1,1.6,0.4c0.5,0.2,0.9,0.6,1.4,1.1v-5.7
			c0,0,0-0.1,0-0.1c0,0,0.1-0.1,0.1-0.1c0.1,0,0.2,0,0.3-0.1c0.1,0,0.3,0,0.4,0c0.2,0,0.3,0,0.4,0c0.1,0,0.2,0,0.3,0.1
			c0.1,0,0.1,0.1,0.1,0.1c0,0,0,0.1,0,0.1V173.2z M76.4,166.4c-0.5-0.6-1-1.1-1.4-1.4c-0.5-0.3-0.9-0.5-1.4-0.5
			c-0.5,0-0.8,0.1-1.2,0.3c-0.3,0.2-0.6,0.5-0.8,0.9c-0.2,0.4-0.3,0.8-0.4,1.2c-0.1,0.4-0.1,0.9-0.1,1.4c0,0.5,0,1,0.1,1.4
			c0.1,0.5,0.2,0.9,0.4,1.3c0.2,0.4,0.4,0.7,0.7,0.9c0.3,0.2,0.7,0.3,1.2,0.3c0.2,0,0.5,0,0.7-0.1c0.2-0.1,0.4-0.2,0.7-0.3
			c0.2-0.2,0.5-0.4,0.7-0.6s0.5-0.5,0.8-0.9V166.4z"/>
		<path id="XMLID_397_" class="st1" d="M83.5,160.2c0,0.4-0.1,0.7-0.2,0.9c-0.2,0.2-0.5,0.2-0.9,0.2c-0.4,0-0.7-0.1-0.9-0.2
			s-0.2-0.4-0.2-0.8c0-0.4,0.1-0.7,0.2-0.9c0.2-0.2,0.5-0.2,0.9-0.2c0.4,0,0.7,0.1,0.9,0.2S83.5,159.8,83.5,160.2z M83.3,173.2
			c0,0.1,0,0.1,0,0.1c0,0-0.1,0.1-0.1,0.1c-0.1,0-0.2,0.1-0.3,0.1s-0.3,0-0.4,0c-0.2,0-0.3,0-0.4,0c-0.1,0-0.2,0-0.3-0.1
			c-0.1,0-0.1-0.1-0.1-0.1c0,0,0-0.1,0-0.1v-9.8c0-0.1,0-0.1,0-0.1c0,0,0.1-0.1,0.1-0.1c0.1,0,0.2-0.1,0.3-0.1c0.1,0,0.3,0,0.4,0
			c0.2,0,0.3,0,0.4,0c0.1,0,0.2,0,0.3,0.1c0.1,0,0.1,0.1,0.1,0.1c0,0,0,0.1,0,0.1V173.2z"/>
		<path id="XMLID_400_" class="st1" d="M92.7,170.6c0,0.5-0.1,0.9-0.3,1.3c-0.2,0.4-0.4,0.7-0.8,1c-0.3,0.3-0.7,0.5-1.2,0.6
			c-0.5,0.1-1,0.2-1.5,0.2c-0.3,0-0.7,0-1-0.1c-0.3-0.1-0.6-0.1-0.8-0.2c-0.2-0.1-0.5-0.2-0.6-0.3c-0.2-0.1-0.3-0.2-0.4-0.2
			c-0.1-0.1-0.1-0.2-0.2-0.3c0-0.1-0.1-0.3-0.1-0.5c0-0.1,0-0.3,0-0.3c0-0.1,0-0.2,0.1-0.2c0-0.1,0.1-0.1,0.1-0.1c0,0,0.1,0,0.1,0
			c0.1,0,0.2,0,0.4,0.1c0.2,0.1,0.3,0.2,0.6,0.3c0.2,0.1,0.5,0.2,0.8,0.3c0.3,0.1,0.7,0.1,1.1,0.1c0.3,0,0.6,0,0.8-0.1
			c0.2-0.1,0.5-0.2,0.6-0.3c0.2-0.1,0.3-0.3,0.4-0.5c0.1-0.2,0.1-0.4,0.1-0.7c0-0.3-0.1-0.5-0.2-0.7c-0.1-0.2-0.3-0.4-0.6-0.5
			c-0.2-0.1-0.5-0.3-0.8-0.4c-0.3-0.1-0.6-0.2-0.9-0.4c-0.3-0.1-0.6-0.3-0.9-0.4c-0.3-0.2-0.6-0.3-0.8-0.6c-0.2-0.2-0.4-0.5-0.6-0.8
			c-0.1-0.3-0.2-0.7-0.2-1.1c0-0.4,0.1-0.7,0.2-1.1c0.1-0.4,0.4-0.7,0.7-0.9c0.3-0.3,0.7-0.5,1.1-0.6c0.4-0.2,1-0.2,1.6-0.2
			c0.3,0,0.5,0,0.8,0.1c0.3,0,0.5,0.1,0.7,0.2c0.2,0.1,0.4,0.1,0.5,0.2s0.3,0.1,0.3,0.2c0.1,0.1,0.1,0.1,0.2,0.2c0,0,0,0.1,0.1,0.1
			c0,0.1,0,0.1,0,0.2c0,0.1,0,0.2,0,0.3c0,0.1,0,0.2,0,0.3c0,0.1,0,0.2-0.1,0.2c0,0.1-0.1,0.1-0.1,0.1c0,0-0.1,0-0.1,0
			c-0.1,0-0.2,0-0.3-0.1c-0.1-0.1-0.3-0.2-0.5-0.3c-0.2-0.1-0.4-0.2-0.7-0.3c-0.3-0.1-0.6-0.1-0.9-0.1c-0.3,0-0.6,0-0.8,0.1
			c-0.2,0.1-0.4,0.2-0.6,0.3c-0.1,0.1-0.3,0.3-0.3,0.4c-0.1,0.2-0.1,0.4-0.1,0.6c0,0.3,0.1,0.5,0.2,0.7c0.1,0.2,0.3,0.4,0.6,0.5
			c0.2,0.1,0.5,0.3,0.8,0.4c0.3,0.1,0.6,0.2,0.9,0.4c0.3,0.1,0.6,0.3,0.9,0.4c0.3,0.2,0.6,0.3,0.8,0.6c0.2,0.2,0.4,0.5,0.6,0.8
			C92.7,169.8,92.7,170.1,92.7,170.6z"/>
		<path id="XMLID_402_" class="st1" d="M100.1,172.5c0,0.2,0,0.4,0,0.5c0,0.1-0.1,0.2-0.1,0.3c-0.1,0.1-0.1,0.1-0.3,0.2
			c-0.1,0-0.2,0.1-0.4,0.1c-0.1,0-0.3,0.1-0.5,0.1c-0.2,0-0.3,0-0.5,0c-0.5,0-0.9-0.1-1.3-0.2c-0.4-0.1-0.7-0.3-0.9-0.6
			c-0.2-0.3-0.4-0.6-0.5-1c-0.1-0.4-0.2-0.9-0.2-1.5v-5.7h-1.4c-0.1,0-0.2-0.1-0.3-0.2c-0.1-0.1-0.1-0.3-0.1-0.6c0-0.1,0-0.3,0-0.3
			c0-0.1,0-0.2,0.1-0.2c0-0.1,0.1-0.1,0.1-0.1c0,0,0.1,0,0.2,0h1.4v-2.3c0,0,0-0.1,0-0.1c0,0,0.1-0.1,0.1-0.1c0.1,0,0.2-0.1,0.3-0.1
			c0.1,0,0.3,0,0.4,0c0.2,0,0.3,0,0.4,0c0.1,0,0.2,0,0.3,0.1c0.1,0,0.1,0.1,0.1,0.1s0,0.1,0,0.1v2.3h2.5c0.1,0,0.1,0,0.2,0
			c0,0,0.1,0.1,0.1,0.1c0,0.1,0.1,0.1,0.1,0.2c0,0.1,0,0.2,0,0.3c0,0.3,0,0.4-0.1,0.6c-0.1,0.1-0.2,0.2-0.3,0.2h-2.5v5.4
			c0,0.7,0.1,1.2,0.3,1.5c0.2,0.3,0.6,0.5,1.1,0.5c0.2,0,0.3,0,0.4,0c0.1,0,0.2-0.1,0.3-0.1c0.1,0,0.2-0.1,0.3-0.1
			c0.1,0,0.1,0,0.2,0c0,0,0.1,0,0.1,0c0,0,0.1,0.1,0.1,0.1c0,0,0,0.1,0,0.2C100.1,172.3,100.1,172.4,100.1,172.5z"/>
		<path id="XMLID_404_" class="st1" d="M108.2,164.1c0,0.2,0,0.3,0,0.4c0,0.1,0,0.2,0,0.3c0,0.1,0,0.1-0.1,0.1c0,0-0.1,0-0.1,0
			c-0.1,0-0.1,0-0.2,0c-0.1,0-0.2-0.1-0.3-0.1c-0.1,0-0.2-0.1-0.4-0.1c-0.1,0-0.3,0-0.4,0c-0.2,0-0.4,0-0.5,0.1
			c-0.2,0.1-0.4,0.2-0.5,0.4c-0.2,0.2-0.4,0.4-0.6,0.7s-0.4,0.6-0.7,1v6.4c0,0.1,0,0.1,0,0.1c0,0-0.1,0.1-0.1,0.1
			c-0.1,0-0.2,0.1-0.3,0.1s-0.3,0-0.4,0c-0.2,0-0.3,0-0.4,0s-0.2,0-0.3-0.1c-0.1,0-0.1-0.1-0.1-0.1c0,0,0-0.1,0-0.1v-9.8
			c0-0.1,0-0.1,0-0.1s0.1-0.1,0.1-0.1c0.1,0,0.1-0.1,0.3-0.1c0.1,0,0.2,0,0.4,0c0.2,0,0.3,0,0.4,0c0.1,0,0.2,0,0.2,0.1
			c0.1,0,0.1,0.1,0.1,0.1c0,0,0,0.1,0,0.1v1.4c0.3-0.4,0.5-0.7,0.8-1c0.2-0.2,0.5-0.4,0.7-0.6c0.2-0.1,0.4-0.2,0.6-0.3
			c0.2-0.1,0.4-0.1,0.6-0.1c0.1,0,0.2,0,0.3,0c0.1,0,0.2,0,0.4,0.1c0.1,0,0.2,0.1,0.4,0.1c0.1,0,0.2,0.1,0.2,0.1
			c0,0,0.1,0.1,0.1,0.1c0,0,0,0.1,0,0.1c0,0,0,0.1,0,0.2C108.2,163.8,108.2,163.9,108.2,164.1z"/>
		<path id="XMLID_406_" class="st1" d="M112.2,160.2c0,0.4-0.1,0.7-0.2,0.9c-0.2,0.2-0.5,0.2-0.9,0.2c-0.4,0-0.7-0.1-0.9-0.2
			c-0.2-0.1-0.2-0.4-0.2-0.8c0-0.4,0.1-0.7,0.2-0.9c0.2-0.2,0.5-0.2,0.9-0.2c0.4,0,0.7,0.1,0.9,0.2
			C112.1,159.5,112.2,159.8,112.2,160.2z M112,173.2c0,0.1,0,0.1,0,0.1c0,0-0.1,0.1-0.1,0.1s-0.2,0.1-0.3,0.1c-0.1,0-0.3,0-0.4,0
			c-0.2,0-0.3,0-0.4,0s-0.2,0-0.3-0.1c-0.1,0-0.1-0.1-0.1-0.1c0,0,0-0.1,0-0.1v-9.8c0-0.1,0-0.1,0-0.1c0,0,0.1-0.1,0.1-0.1
			c0.1,0,0.2-0.1,0.3-0.1c0.1,0,0.3,0,0.4,0c0.2,0,0.3,0,0.4,0c0.1,0,0.2,0,0.3,0.1c0.1,0,0.1,0.1,0.1,0.1c0,0,0,0.1,0,0.1V173.2z"
			/>
		<path id="XMLID_409_" class="st1" d="M124.3,168.2c0,0.8-0.1,1.6-0.3,2.3c-0.2,0.7-0.5,1.3-0.8,1.7s-0.8,0.8-1.3,1.1
			c-0.5,0.3-1.1,0.4-1.8,0.4c-0.3,0-0.6,0-0.9-0.1c-0.3-0.1-0.5-0.2-0.8-0.3c-0.3-0.1-0.5-0.3-0.8-0.5c-0.3-0.2-0.5-0.5-0.8-0.8v1.2
			c0,0.1,0,0.1,0,0.2c0,0-0.1,0.1-0.1,0.1c-0.1,0-0.1,0-0.2,0.1c-0.1,0-0.2,0-0.4,0c-0.1,0-0.3,0-0.4,0c-0.1,0-0.2,0-0.3-0.1
			c-0.1,0-0.1-0.1-0.1-0.1c0,0,0-0.1,0-0.2v-14.5c0-0.1,0-0.1,0-0.2c0,0,0.1-0.1,0.1-0.1c0.1,0,0.2-0.1,0.3-0.1c0.1,0,0.3,0,0.4,0
			c0.2,0,0.3,0,0.4,0c0.1,0,0.2,0,0.3,0.1c0.1,0,0.1,0.1,0.1,0.1c0,0,0,0.1,0,0.2v5.8c0.3-0.3,0.6-0.5,0.8-0.7
			c0.3-0.2,0.5-0.4,0.8-0.5c0.3-0.1,0.5-0.2,0.8-0.3c0.3-0.1,0.5-0.1,0.8-0.1c0.7,0,1.3,0.1,1.8,0.4c0.5,0.3,0.9,0.7,1.2,1.1
			c0.3,0.5,0.5,1,0.7,1.7C124.2,166.8,124.3,167.5,124.3,168.2z M122.4,168.4c0-0.5,0-1-0.1-1.5c-0.1-0.5-0.2-0.9-0.4-1.2
			c-0.2-0.4-0.4-0.7-0.8-0.9c-0.3-0.2-0.7-0.3-1.2-0.3c-0.2,0-0.5,0-0.7,0.1c-0.2,0.1-0.5,0.2-0.7,0.3c-0.2,0.2-0.5,0.3-0.7,0.6
			c-0.3,0.2-0.5,0.5-0.8,0.9v3.9c0.5,0.6,1,1.1,1.4,1.4c0.5,0.3,0.9,0.5,1.4,0.5c0.5,0,0.8-0.1,1.2-0.3c0.3-0.2,0.6-0.5,0.8-0.9
			c0.2-0.4,0.3-0.8,0.4-1.2C122.4,169.3,122.4,168.9,122.4,168.4z"/>
		<path id="XMLID_412_" class="st1" d="M135.3,173.2c0,0.1,0,0.1,0,0.1c0,0-0.1,0.1-0.1,0.1c-0.1,0-0.1,0.1-0.3,0.1s-0.2,0-0.4,0
			c-0.2,0-0.3,0-0.4,0s-0.2,0-0.2-0.1c-0.1,0-0.1-0.1-0.1-0.1c0,0,0-0.1,0-0.1v-1.3c-0.6,0.6-1.1,1.1-1.6,1.3
			c-0.5,0.3-1.1,0.4-1.6,0.4c-0.7,0-1.2-0.1-1.6-0.3c-0.4-0.2-0.8-0.5-1.1-0.9c-0.3-0.4-0.5-0.8-0.6-1.3c-0.1-0.5-0.2-1.1-0.2-1.8
			v-5.9c0-0.1,0-0.1,0-0.1c0,0,0.1-0.1,0.1-0.1c0.1,0,0.2-0.1,0.3-0.1c0.1,0,0.3,0,0.4,0s0.3,0,0.4,0c0.1,0,0.2,0,0.3,0.1
			c0.1,0,0.1,0.1,0.1,0.1c0,0,0,0.1,0,0.1v5.7c0,0.6,0,1,0.1,1.4c0.1,0.3,0.2,0.6,0.4,0.9c0.2,0.2,0.4,0.4,0.6,0.6
			c0.3,0.1,0.6,0.2,0.9,0.2c0.4,0,0.9-0.2,1.3-0.5c0.4-0.3,0.9-0.8,1.4-1.4v-6.8c0-0.1,0-0.1,0-0.1c0,0,0.1-0.1,0.1-0.1
			c0.1,0,0.2-0.1,0.3-0.1c0.1,0,0.3,0,0.4,0c0.2,0,0.3,0,0.4,0c0.1,0,0.2,0,0.3,0.1c0.1,0,0.1,0.1,0.1,0.1c0,0,0,0.1,0,0.1V173.2z"
			/>
		<path id="XMLID_414_" class="st1" d="M145.6,171.7c0,0.1,0,0.2,0,0.3c0,0.1,0,0.2,0,0.2c0,0.1,0,0.1-0.1,0.2c0,0-0.1,0.1-0.2,0.2
			c-0.1,0.1-0.2,0.2-0.5,0.3c-0.2,0.1-0.5,0.3-0.7,0.4c-0.3,0.1-0.6,0.2-0.9,0.3c-0.3,0.1-0.6,0.1-1,0.1c-0.7,0-1.3-0.1-1.9-0.3
			c-0.5-0.2-1-0.6-1.4-1c-0.4-0.4-0.6-1-0.8-1.6c-0.2-0.6-0.3-1.4-0.3-2.2c0-1,0.1-1.8,0.4-2.5c0.2-0.7,0.6-1.3,1-1.7
			c0.4-0.4,0.9-0.8,1.4-1s1.2-0.3,1.8-0.3c0.3,0,0.6,0,0.9,0.1c0.3,0.1,0.6,0.1,0.8,0.2c0.2,0.1,0.5,0.2,0.7,0.3
			c0.2,0.1,0.3,0.2,0.4,0.3c0.1,0.1,0.1,0.2,0.2,0.2c0,0.1,0.1,0.1,0.1,0.2c0,0.1,0,0.1,0,0.2c0,0.1,0,0.2,0,0.3
			c0,0.3,0,0.5-0.1,0.6c-0.1,0.1-0.1,0.2-0.2,0.2c-0.1,0-0.2-0.1-0.4-0.2c-0.1-0.1-0.3-0.3-0.5-0.4c-0.2-0.1-0.5-0.3-0.8-0.4
			c-0.3-0.1-0.7-0.2-1.1-0.2c-0.9,0-1.5,0.3-2,1c-0.5,0.7-0.7,1.6-0.7,2.9c0,0.6,0.1,1.2,0.2,1.7c0.1,0.5,0.3,0.9,0.5,1.2
			c0.2,0.3,0.5,0.6,0.9,0.7c0.3,0.2,0.7,0.2,1.2,0.2c0.4,0,0.8-0.1,1.1-0.2c0.3-0.1,0.6-0.3,0.8-0.4c0.2-0.2,0.4-0.3,0.6-0.4
			c0.2-0.1,0.3-0.2,0.4-0.2c0.1,0,0.1,0,0.1,0c0,0,0.1,0.1,0.1,0.1c0,0.1,0,0.2,0.1,0.3C145.6,171.5,145.6,171.6,145.6,171.7z"/>
		<path id="XMLID_416_" class="st1" d="M150,160.2c0,0.4-0.1,0.7-0.2,0.9c-0.2,0.2-0.5,0.2-0.9,0.2c-0.4,0-0.7-0.1-0.9-0.2
			c-0.2-0.1-0.2-0.4-0.2-0.8c0-0.4,0.1-0.7,0.2-0.9c0.2-0.2,0.5-0.2,0.9-0.2c0.4,0,0.7,0.1,0.9,0.2C149.9,159.5,150,159.8,150,160.2
			z M149.8,173.2c0,0.1,0,0.1,0,0.1c0,0-0.1,0.1-0.1,0.1s-0.2,0.1-0.3,0.1s-0.3,0-0.4,0c-0.2,0-0.3,0-0.4,0c-0.1,0-0.2,0-0.3-0.1
			c-0.1,0-0.1-0.1-0.1-0.1c0,0,0-0.1,0-0.1v-9.8c0-0.1,0-0.1,0-0.1c0,0,0.1-0.1,0.1-0.1c0.1,0,0.2-0.1,0.3-0.1c0.1,0,0.3,0,0.4,0
			c0.2,0,0.3,0,0.4,0c0.1,0,0.2,0,0.3,0.1c0.1,0,0.1,0.1,0.1,0.1c0,0,0,0.1,0,0.1V173.2z"/>
		<path id="XMLID_419_" class="st1" d="M162.2,168.2c0,0.8-0.1,1.5-0.3,2.2s-0.5,1.2-0.9,1.7s-0.9,0.9-1.6,1.1
			c-0.6,0.3-1.3,0.4-2.2,0.4c-0.8,0-1.5-0.1-2.1-0.4c-0.6-0.2-1.1-0.6-1.5-1c-0.4-0.5-0.7-1-0.9-1.7c-0.2-0.7-0.3-1.4-0.3-2.2
			c0-0.8,0.1-1.5,0.3-2.2c0.2-0.7,0.5-1.2,0.9-1.7c0.4-0.5,0.9-0.9,1.6-1.1c0.6-0.3,1.3-0.4,2.2-0.4c0.8,0,1.5,0.1,2.1,0.4
			c0.6,0.2,1.1,0.6,1.5,1c0.4,0.5,0.7,1,0.9,1.7C162.1,166.7,162.2,167.4,162.2,168.2z M160.3,168.4c0-0.5,0-1-0.1-1.5
			c-0.1-0.5-0.3-0.9-0.5-1.2c-0.2-0.4-0.5-0.6-0.9-0.8c-0.4-0.2-0.9-0.3-1.4-0.3c-0.5,0-1,0.1-1.4,0.3s-0.7,0.5-0.9,0.8
			c-0.2,0.3-0.4,0.7-0.6,1.2c-0.1,0.5-0.2,1-0.2,1.5c0,0.5,0,1,0.1,1.5c0.1,0.5,0.3,0.9,0.5,1.2s0.5,0.6,0.9,0.8
			c0.4,0.2,0.9,0.3,1.4,0.3c0.5,0,1-0.1,1.4-0.3c0.4-0.2,0.7-0.5,1-0.8c0.2-0.3,0.4-0.7,0.5-1.2
			C160.3,169.4,160.3,168.9,160.3,168.4z M158.2,158.7c0-0.1,0.1-0.1,0.2-0.2c0.1-0.1,0.1-0.1,0.2-0.1c0.1,0,0.2,0,0.3-0.1
			c0.1,0,0.3,0,0.4,0c0.2,0,0.4,0,0.5,0c0.1,0,0.2,0.1,0.3,0.1c0.1,0,0.1,0.1,0.1,0.2c0,0.1,0,0.1-0.1,0.2l-2,2.5
			c-0.1,0.1-0.1,0.1-0.2,0.2c0,0-0.1,0.1-0.2,0.1c-0.1,0-0.1,0-0.2,0.1c-0.1,0-0.2,0-0.4,0c-0.2,0-0.3,0-0.4,0s-0.2,0-0.2-0.1
			c0,0-0.1-0.1,0-0.1c0-0.1,0-0.1,0.1-0.2L158.2,158.7z"/>
		<path id="XMLID_423_" class="st1" d="M173.2,173.2c0,0.1,0,0.1,0,0.1c0,0-0.1,0.1-0.1,0.1c-0.1,0-0.2,0.1-0.3,0.1s-0.3,0-0.4,0
			c-0.2,0-0.3,0-0.4,0c-0.1,0-0.2,0-0.3-0.1c-0.1,0-0.1-0.1-0.1-0.1s0-0.1,0-0.1v-5.7c0-0.6,0-1-0.1-1.3c-0.1-0.3-0.2-0.6-0.4-0.9
			c-0.2-0.2-0.4-0.4-0.6-0.6c-0.3-0.1-0.6-0.2-0.9-0.2c-0.4,0-0.9,0.2-1.3,0.5c-0.4,0.3-0.9,0.8-1.4,1.4v6.8c0,0.1,0,0.1,0,0.1
			c0,0-0.1,0.1-0.1,0.1c-0.1,0-0.2,0.1-0.3,0.1c-0.1,0-0.3,0-0.4,0c-0.2,0-0.3,0-0.4,0c-0.1,0-0.2,0-0.3-0.1c-0.1,0-0.1-0.1-0.1-0.1
			c0,0,0-0.1,0-0.1v-9.8c0-0.1,0-0.1,0-0.1c0,0,0.1-0.1,0.1-0.1c0.1,0,0.1-0.1,0.3-0.1c0.1,0,0.2,0,0.4,0c0.2,0,0.3,0,0.4,0
			c0.1,0,0.2,0,0.2,0.1c0.1,0,0.1,0.1,0.1,0.1c0,0,0,0.1,0,0.1v1.3c0.5-0.6,1.1-1.1,1.6-1.4c0.5-0.3,1.1-0.4,1.7-0.4
			c0.7,0,1.2,0.1,1.6,0.3c0.4,0.2,0.8,0.5,1.1,0.9c0.3,0.4,0.5,0.8,0.6,1.3c0.1,0.5,0.2,1.1,0.2,1.8V173.2z"/>
		<path id="XMLID_425_" class="st1" d="M57.3,195.7c0,0.1,0,0.1,0,0.2c0,0-0.1,0.1-0.1,0.1c-0.1,0-0.1,0-0.2,0.1c-0.1,0-0.2,0-0.4,0
			c-0.2,0-0.3,0-0.4,0c-0.1,0-0.2,0-0.2-0.1s-0.1-0.1-0.1-0.1s0-0.1,0-0.2v-1.3c-0.5,0.6-1,1-1.6,1.3c-0.6,0.3-1.2,0.5-1.8,0.5
			c-0.7,0-1.3-0.1-1.8-0.4c-0.5-0.3-0.9-0.7-1.2-1.1c-0.3-0.5-0.5-1-0.7-1.7c-0.1-0.6-0.2-1.3-0.2-2c0-0.8,0.1-1.6,0.3-2.3
			c0.2-0.7,0.4-1.3,0.8-1.7c0.4-0.5,0.8-0.8,1.3-1.1c0.5-0.3,1.1-0.4,1.8-0.4c0.6,0,1.1,0.1,1.6,0.4c0.5,0.2,0.9,0.6,1.4,1.1v-5.7
			c0,0,0-0.1,0-0.1c0,0,0.1-0.1,0.1-0.1c0.1,0,0.2,0,0.3-0.1c0.1,0,0.3,0,0.4,0c0.2,0,0.3,0,0.4,0c0.1,0,0.2,0,0.3,0.1
			c0.1,0,0.1,0.1,0.1,0.1c0,0,0,0.1,0,0.1V195.7z M55.5,188.9c-0.5-0.6-1-1.1-1.4-1.4c-0.5-0.3-0.9-0.5-1.4-0.5
			c-0.5,0-0.8,0.1-1.2,0.3c-0.3,0.2-0.6,0.5-0.8,0.9c-0.2,0.4-0.3,0.8-0.4,1.2c-0.1,0.4-0.1,0.9-0.1,1.4c0,0.5,0,1,0.1,1.4
			c0.1,0.5,0.2,0.9,0.4,1.3c0.2,0.4,0.4,0.7,0.7,0.9c0.3,0.2,0.7,0.3,1.2,0.3c0.2,0,0.5,0,0.7-0.1c0.2-0.1,0.4-0.2,0.7-0.3
			c0.2-0.2,0.5-0.4,0.7-0.6c0.3-0.2,0.5-0.5,0.8-0.9V188.9z"/>
		<path id="XMLID_428_" class="st1" d="M68.9,190.4c0,0.3-0.1,0.5-0.2,0.6c-0.1,0.1-0.3,0.2-0.5,0.2h-6.4c0,0.5,0.1,1,0.2,1.5
			c0.1,0.4,0.3,0.8,0.5,1.1c0.3,0.3,0.6,0.5,1,0.7c0.4,0.2,0.9,0.2,1.5,0.2c0.5,0,0.9,0,1.2-0.1c0.4-0.1,0.7-0.2,0.9-0.3
			c0.3-0.1,0.5-0.2,0.7-0.3c0.2-0.1,0.3-0.1,0.4-0.1c0.1,0,0.1,0,0.1,0c0,0,0.1,0.1,0.1,0.1c0,0,0,0.1,0,0.2c0,0.1,0,0.2,0,0.3
			c0,0.1,0,0.2,0,0.2c0,0.1,0,0.1,0,0.2c0,0.1,0,0.1-0.1,0.1c0,0-0.1,0.1-0.1,0.1c0,0-0.2,0.1-0.4,0.2c-0.2,0.1-0.4,0.2-0.8,0.3
			c-0.3,0.1-0.7,0.2-1.1,0.2c-0.4,0.1-0.8,0.1-1.3,0.1c-0.8,0-1.5-0.1-2.1-0.3s-1.1-0.6-1.5-1c-0.4-0.4-0.7-1-0.9-1.7
			c-0.2-0.7-0.3-1.4-0.3-2.3c0-0.8,0.1-1.6,0.3-2.3c0.2-0.7,0.5-1.2,0.9-1.7c0.4-0.5,0.9-0.8,1.5-1.1c0.6-0.2,1.2-0.4,1.9-0.4
			c0.8,0,1.4,0.1,2,0.4c0.5,0.2,1,0.6,1.3,1c0.3,0.4,0.6,0.9,0.8,1.5c0.2,0.6,0.2,1.2,0.2,1.8V190.4z M67.1,189.9
			c0-0.9-0.2-1.7-0.6-2.2c-0.4-0.5-1.1-0.8-2-0.8c-0.4,0-0.8,0.1-1.2,0.2c-0.3,0.2-0.6,0.4-0.8,0.7c-0.2,0.3-0.4,0.6-0.5,1
			c-0.1,0.4-0.2,0.7-0.2,1.1H67.1z"/>
		<path id="XMLID_431_" class="st1" d="M73.4,195.7c0,0.1,0,0.1,0,0.1c0,0-0.1,0.1-0.1,0.1c-0.1,0-0.2,0.1-0.3,0.1
			c-0.1,0-0.3,0-0.4,0c-0.2,0-0.3,0-0.4,0c-0.1,0-0.2,0-0.3-0.1c-0.1,0-0.1-0.1-0.1-0.1c0,0,0-0.1,0-0.1v-14.5c0-0.1,0-0.1,0-0.2
			c0,0,0.1-0.1,0.1-0.1c0.1,0,0.2-0.1,0.3-0.1c0.1,0,0.3,0,0.4,0c0.2,0,0.3,0,0.4,0c0.1,0,0.2,0,0.3,0.1c0.1,0,0.1,0.1,0.1,0.1
			c0,0,0,0.1,0,0.2V195.7z"/>
		<path id="XMLID_433_" class="st1" d="M89.1,195.7c0,0.1,0,0.2-0.1,0.2c-0.1,0-0.1,0.1-0.2,0.1c-0.1,0-0.3,0-0.4,0
			c-0.2,0-0.3,0-0.4,0c-0.1,0-0.2-0.1-0.2-0.1c-0.1,0-0.1-0.1-0.1-0.2v-1c-0.4,0.5-0.9,0.8-1.4,1.1c-0.5,0.3-1.1,0.4-1.7,0.4
			c-0.5,0-1-0.1-1.4-0.2c-0.4-0.1-0.8-0.3-1.1-0.6c-0.3-0.3-0.5-0.6-0.7-0.9c-0.2-0.4-0.2-0.8-0.2-1.3c0-0.5,0.1-1,0.3-1.4
			c0.2-0.4,0.5-0.7,1-1c0.4-0.3,0.9-0.5,1.5-0.6c0.6-0.1,1.3-0.2,2-0.2h1.3v-0.8c0-0.4,0-0.7-0.1-1c-0.1-0.3-0.2-0.5-0.4-0.7
			c-0.2-0.2-0.4-0.3-0.7-0.4c-0.3-0.1-0.6-0.1-1-0.1c-0.4,0-0.8,0.1-1.2,0.2c-0.4,0.1-0.7,0.2-0.9,0.3c-0.3,0.1-0.5,0.2-0.7,0.3
			c-0.2,0.1-0.3,0.2-0.4,0.2c-0.1,0-0.1,0-0.2,0c0,0-0.1-0.1-0.1-0.1c0-0.1-0.1-0.1-0.1-0.2c0-0.1,0-0.2,0-0.3c0-0.2,0-0.3,0-0.4
			c0-0.1,0.1-0.2,0.2-0.3c0.1-0.1,0.3-0.2,0.5-0.3c0.2-0.1,0.5-0.2,0.8-0.3c0.3-0.1,0.7-0.2,1-0.3c0.4-0.1,0.7-0.1,1.1-0.1
			c0.7,0,1.3,0.1,1.8,0.2c0.5,0.2,0.9,0.4,1.2,0.7c0.3,0.3,0.5,0.7,0.7,1.1s0.2,1,0.2,1.6V195.7z M87.3,191.3h-1.5
			c-0.5,0-0.9,0-1.3,0.1s-0.7,0.2-0.9,0.4c-0.2,0.2-0.4,0.4-0.5,0.6c-0.1,0.2-0.2,0.5-0.2,0.8c0,0.5,0.2,0.9,0.5,1.2
			c0.3,0.3,0.8,0.4,1.3,0.4c0.5,0,0.9-0.1,1.3-0.4c0.4-0.2,0.8-0.6,1.3-1.1V191.3z"/>
		<path id="XMLID_436_" class="st1" d="M94.4,182.7c0,0.4-0.1,0.7-0.2,0.9c-0.2,0.2-0.5,0.2-0.9,0.2c-0.4,0-0.7-0.1-0.9-0.2
			c-0.2-0.1-0.2-0.4-0.2-0.8c0-0.4,0.1-0.7,0.2-0.9c0.2-0.2,0.5-0.2,0.9-0.2c0.4,0,0.7,0.1,0.9,0.2C94.3,182,94.4,182.3,94.4,182.7z
			 M94.2,195.7c0,0.1,0,0.1,0,0.1c0,0-0.1,0.1-0.1,0.1c-0.1,0-0.2,0.1-0.3,0.1s-0.3,0-0.4,0c-0.2,0-0.3,0-0.4,0s-0.2,0-0.3-0.1
			c-0.1,0-0.1-0.1-0.1-0.1c0,0,0-0.1,0-0.1V186c0-0.1,0-0.1,0-0.1c0,0,0.1-0.1,0.1-0.1c0.1,0,0.2-0.1,0.3-0.1c0.1,0,0.3,0,0.4,0
			c0.2,0,0.3,0,0.4,0c0.1,0,0.2,0,0.3,0.1c0.1,0,0.1,0.1,0.1,0.1c0,0,0,0.1,0,0.1V195.7z"/>
		<path id="XMLID_439_" class="st1" d="M103.2,186.6c0,0.2,0,0.3,0,0.4c0,0.1,0,0.2,0,0.3c0,0.1,0,0.1-0.1,0.1c0,0-0.1,0-0.1,0
			c-0.1,0-0.1,0-0.2,0c-0.1,0-0.2-0.1-0.3-0.1c-0.1,0-0.2-0.1-0.4-0.1c-0.1,0-0.3,0-0.4,0c-0.2,0-0.4,0-0.5,0.1
			c-0.2,0.1-0.4,0.2-0.5,0.4c-0.2,0.2-0.4,0.4-0.6,0.7c-0.2,0.3-0.4,0.6-0.7,1v6.4c0,0.1,0,0.1,0,0.1c0,0-0.1,0.1-0.1,0.1
			c-0.1,0-0.2,0.1-0.3,0.1c-0.1,0-0.3,0-0.4,0c-0.2,0-0.3,0-0.4,0c-0.1,0-0.2,0-0.3-0.1c-0.1,0-0.1-0.1-0.1-0.1c0,0,0-0.1,0-0.1V186
			c0-0.1,0-0.1,0-0.1c0,0,0.1-0.1,0.1-0.1c0.1,0,0.1-0.1,0.3-0.1c0.1,0,0.2,0,0.4,0c0.2,0,0.3,0,0.4,0c0.1,0,0.2,0,0.2,0.1
			c0.1,0,0.1,0.1,0.1,0.1c0,0,0,0.1,0,0.1v1.4c0.3-0.4,0.5-0.7,0.8-1c0.2-0.2,0.5-0.4,0.7-0.6c0.2-0.1,0.4-0.2,0.6-0.3
			c0.2-0.1,0.4-0.1,0.6-0.1c0.1,0,0.2,0,0.3,0c0.1,0,0.2,0,0.4,0.1c0.1,0,0.2,0.1,0.4,0.1c0.1,0,0.2,0.1,0.2,0.1
			c0,0,0.1,0.1,0.1,0.1c0,0,0,0.1,0,0.1c0,0,0,0.1,0,0.2C103.2,186.3,103.2,186.4,103.2,186.6z"/>
		<path id="XMLID_441_" class="st1" d="M113.3,190.4c0,0.3-0.1,0.5-0.2,0.6c-0.1,0.1-0.3,0.2-0.5,0.2h-6.4c0,0.5,0.1,1,0.2,1.5
			c0.1,0.4,0.3,0.8,0.5,1.1c0.3,0.3,0.6,0.5,1,0.7c0.4,0.2,0.9,0.2,1.5,0.2c0.5,0,0.9,0,1.2-0.1c0.4-0.1,0.7-0.2,0.9-0.3
			c0.3-0.1,0.5-0.2,0.7-0.3c0.2-0.1,0.3-0.1,0.4-0.1c0.1,0,0.1,0,0.1,0c0,0,0.1,0.1,0.1,0.1c0,0,0,0.1,0,0.2c0,0.1,0,0.2,0,0.3
			c0,0.1,0,0.2,0,0.2c0,0.1,0,0.1,0,0.2c0,0.1,0,0.1-0.1,0.1c0,0-0.1,0.1-0.1,0.1c0,0-0.2,0.1-0.4,0.2c-0.2,0.1-0.4,0.2-0.8,0.3
			c-0.3,0.1-0.7,0.2-1.1,0.2c-0.4,0.1-0.8,0.1-1.3,0.1c-0.8,0-1.5-0.1-2.1-0.3s-1.1-0.6-1.5-1c-0.4-0.4-0.7-1-0.9-1.7
			c-0.2-0.7-0.3-1.4-0.3-2.3c0-0.8,0.1-1.6,0.3-2.3c0.2-0.7,0.5-1.2,0.9-1.7c0.4-0.5,0.9-0.8,1.5-1.1c0.6-0.2,1.2-0.4,1.9-0.4
			c0.8,0,1.4,0.1,2,0.4c0.5,0.2,1,0.6,1.3,1c0.3,0.4,0.6,0.9,0.8,1.5c0.2,0.6,0.2,1.2,0.2,1.8V190.4z M111.5,189.9
			c0-0.9-0.2-1.7-0.6-2.2c-0.4-0.5-1.1-0.8-2-0.8c-0.4,0-0.8,0.1-1.2,0.2c-0.3,0.2-0.6,0.4-0.8,0.7c-0.2,0.3-0.4,0.6-0.5,1
			c-0.1,0.4-0.2,0.7-0.2,1.1H111.5z"/>
		<path id="XMLID_444_" class="st1" d="M128,194.2c0,0.1,0,0.2,0,0.3c0,0.1,0,0.2,0,0.2c0,0.1,0,0.1-0.1,0.2c0,0-0.1,0.1-0.2,0.2
			c-0.1,0.1-0.2,0.2-0.5,0.3c-0.2,0.1-0.5,0.3-0.7,0.4c-0.3,0.1-0.6,0.2-0.9,0.3c-0.3,0.1-0.6,0.1-1,0.1c-0.7,0-1.3-0.1-1.9-0.3
			c-0.5-0.2-1-0.6-1.4-1c-0.4-0.4-0.6-1-0.8-1.6c-0.2-0.6-0.3-1.4-0.3-2.2c0-1,0.1-1.8,0.4-2.5c0.2-0.7,0.6-1.3,1-1.7
			c0.4-0.4,0.9-0.8,1.4-1c0.6-0.2,1.2-0.3,1.8-0.3c0.3,0,0.6,0,0.9,0.1c0.3,0.1,0.6,0.1,0.8,0.2c0.2,0.1,0.5,0.2,0.7,0.3
			c0.2,0.1,0.3,0.2,0.4,0.3s0.1,0.2,0.2,0.2c0,0.1,0.1,0.1,0.1,0.2c0,0.1,0,0.1,0,0.2c0,0.1,0,0.2,0,0.3c0,0.3,0,0.5-0.1,0.6
			c-0.1,0.1-0.1,0.2-0.2,0.2c-0.1,0-0.2-0.1-0.4-0.2c-0.1-0.1-0.3-0.3-0.5-0.4c-0.2-0.1-0.5-0.3-0.8-0.4c-0.3-0.1-0.7-0.2-1.1-0.2
			c-0.9,0-1.5,0.3-2,1c-0.5,0.7-0.7,1.6-0.7,2.9c0,0.6,0.1,1.2,0.2,1.7c0.1,0.5,0.3,0.9,0.5,1.2c0.2,0.3,0.5,0.6,0.9,0.7
			c0.3,0.2,0.7,0.2,1.2,0.2c0.4,0,0.8-0.1,1.1-0.2c0.3-0.1,0.6-0.3,0.8-0.4c0.2-0.2,0.4-0.3,0.6-0.4c0.2-0.1,0.3-0.2,0.4-0.2
			c0.1,0,0.1,0,0.1,0c0,0,0.1,0.1,0.1,0.1c0,0.1,0,0.2,0.1,0.3C128,194,128,194.1,128,194.2z"/>
		<path id="XMLID_446_" class="st1" d="M137.6,195.7c0,0.1,0,0.2-0.1,0.2c-0.1,0-0.1,0.1-0.2,0.1c-0.1,0-0.3,0-0.4,0
			c-0.2,0-0.3,0-0.4,0c-0.1,0-0.2-0.1-0.2-0.1s-0.1-0.1-0.1-0.2v-1c-0.4,0.5-0.9,0.8-1.4,1.1c-0.5,0.3-1.1,0.4-1.7,0.4
			c-0.5,0-1-0.1-1.4-0.2c-0.4-0.1-0.8-0.3-1.1-0.6c-0.3-0.3-0.5-0.6-0.7-0.9c-0.2-0.4-0.2-0.8-0.2-1.3c0-0.5,0.1-1,0.3-1.4
			c0.2-0.4,0.5-0.7,1-1c0.4-0.3,0.9-0.5,1.5-0.6c0.6-0.1,1.3-0.2,2-0.2h1.3v-0.8c0-0.4,0-0.7-0.1-1c-0.1-0.3-0.2-0.5-0.4-0.7
			c-0.2-0.2-0.4-0.3-0.7-0.4c-0.3-0.1-0.6-0.1-1-0.1c-0.4,0-0.8,0.1-1.2,0.2c-0.4,0.1-0.7,0.2-0.9,0.3c-0.3,0.1-0.5,0.2-0.7,0.3
			s-0.3,0.2-0.4,0.2c-0.1,0-0.1,0-0.2,0c0,0-0.1-0.1-0.1-0.1c0-0.1-0.1-0.1-0.1-0.2c0-0.1,0-0.2,0-0.3c0-0.2,0-0.3,0-0.4
			c0-0.1,0.1-0.2,0.2-0.3c0.1-0.1,0.3-0.2,0.5-0.3c0.2-0.1,0.5-0.2,0.8-0.3c0.3-0.1,0.7-0.2,1-0.3c0.4-0.1,0.7-0.1,1.1-0.1
			c0.7,0,1.3,0.1,1.8,0.2c0.5,0.2,0.9,0.4,1.2,0.7c0.3,0.3,0.5,0.7,0.7,1.1c0.1,0.5,0.2,1,0.2,1.6V195.7z M135.8,191.3h-1.5
			c-0.5,0-0.9,0-1.3,0.1s-0.7,0.2-0.9,0.4c-0.2,0.2-0.4,0.4-0.5,0.6c-0.1,0.2-0.2,0.5-0.2,0.8c0,0.5,0.2,0.9,0.5,1.2
			c0.3,0.3,0.8,0.4,1.3,0.4c0.5,0,0.9-0.1,1.3-0.4c0.4-0.2,0.8-0.6,1.3-1.1V191.3z"/>
		<path id="XMLID_449_" class="st1" d="M142.6,195.7c0,0.1,0,0.1,0,0.1c0,0-0.1,0.1-0.1,0.1c-0.1,0-0.2,0.1-0.3,0.1
			c-0.1,0-0.3,0-0.4,0c-0.2,0-0.3,0-0.4,0c-0.1,0-0.2,0-0.3-0.1c-0.1,0-0.1-0.1-0.1-0.1c0,0,0-0.1,0-0.1v-14.5c0-0.1,0-0.1,0-0.2
			c0,0,0.1-0.1,0.1-0.1c0.1,0,0.2-0.1,0.3-0.1c0.1,0,0.3,0,0.4,0c0.2,0,0.3,0,0.4,0c0.1,0,0.2,0,0.3,0.1c0.1,0,0.1,0.1,0.1,0.1
			c0,0,0,0.1,0,0.2V195.7z"/>
		<path id="XMLID_451_" class="st1" d="M147.9,182.7c0,0.4-0.1,0.7-0.2,0.9c-0.2,0.2-0.5,0.2-0.9,0.2c-0.4,0-0.7-0.1-0.9-0.2
			c-0.2-0.1-0.2-0.4-0.2-0.8c0-0.4,0.1-0.7,0.2-0.9c0.2-0.2,0.5-0.2,0.9-0.2c0.4,0,0.7,0.1,0.9,0.2
			C147.8,182,147.9,182.3,147.9,182.7z M147.7,195.7c0,0.1,0,0.1,0,0.1c0,0-0.1,0.1-0.1,0.1s-0.2,0.1-0.3,0.1c-0.1,0-0.3,0-0.4,0
			c-0.2,0-0.3,0-0.4,0c-0.1,0-0.2,0-0.3-0.1c-0.1,0-0.1-0.1-0.1-0.1c0,0,0-0.1,0-0.1V186c0-0.1,0-0.1,0-0.1c0,0,0.1-0.1,0.1-0.1
			c0.1,0,0.2-0.1,0.3-0.1c0.1,0,0.3,0,0.4,0c0.2,0,0.3,0,0.4,0c0.1,0,0.2,0,0.3,0.1c0.1,0,0.1,0.1,0.1,0.1c0,0,0,0.1,0,0.1V195.7z"
			/>
		<path id="XMLID_454_" class="st1" d="M159.3,190.4c0,0.3-0.1,0.5-0.2,0.6c-0.1,0.1-0.3,0.2-0.5,0.2h-6.4c0,0.5,0.1,1,0.2,1.5
			c0.1,0.4,0.3,0.8,0.5,1.1c0.3,0.3,0.6,0.5,1,0.7c0.4,0.2,0.9,0.2,1.5,0.2c0.5,0,0.9,0,1.2-0.1c0.4-0.1,0.7-0.2,0.9-0.3
			c0.3-0.1,0.5-0.2,0.7-0.3c0.2-0.1,0.3-0.1,0.4-0.1c0.1,0,0.1,0,0.1,0c0,0,0.1,0.1,0.1,0.1c0,0,0,0.1,0,0.2c0,0.1,0,0.2,0,0.3
			c0,0.1,0,0.2,0,0.2c0,0.1,0,0.1,0,0.2c0,0.1,0,0.1-0.1,0.1c0,0-0.1,0.1-0.1,0.1c0,0-0.2,0.1-0.4,0.2c-0.2,0.1-0.4,0.2-0.8,0.3
			c-0.3,0.1-0.7,0.2-1.1,0.2c-0.4,0.1-0.8,0.1-1.3,0.1c-0.8,0-1.5-0.1-2.1-0.3s-1.1-0.6-1.5-1c-0.4-0.4-0.7-1-0.9-1.7
			c-0.2-0.7-0.3-1.4-0.3-2.3c0-0.8,0.1-1.6,0.3-2.3c0.2-0.7,0.5-1.2,0.9-1.7c0.4-0.5,0.9-0.8,1.5-1.1c0.6-0.2,1.2-0.4,1.9-0.4
			c0.8,0,1.4,0.1,2,0.4c0.5,0.2,1,0.6,1.3,1c0.3,0.4,0.6,0.9,0.8,1.5c0.2,0.6,0.2,1.2,0.2,1.8V190.4z M157.5,189.9
			c0-0.9-0.2-1.7-0.6-2.2c-0.4-0.5-1.1-0.8-2-0.8c-0.4,0-0.8,0.1-1.2,0.2c-0.3,0.2-0.6,0.4-0.8,0.7c-0.2,0.3-0.4,0.6-0.5,1
			c-0.1,0.4-0.2,0.7-0.2,1.1H157.5z"/>
		<path id="XMLID_457_" class="st1" d="M170.5,195.7c0,0.1,0,0.1,0,0.1c0,0-0.1,0.1-0.1,0.1c-0.1,0-0.2,0.1-0.3,0.1
			c-0.1,0-0.3,0-0.4,0c-0.2,0-0.3,0-0.4,0s-0.2,0-0.3-0.1c-0.1,0-0.1-0.1-0.1-0.1s0-0.1,0-0.1V190c0-0.6,0-1-0.1-1.3
			c-0.1-0.3-0.2-0.6-0.4-0.9c-0.2-0.2-0.4-0.4-0.6-0.6c-0.3-0.1-0.6-0.2-0.9-0.2c-0.4,0-0.9,0.2-1.3,0.5c-0.4,0.3-0.9,0.8-1.4,1.4
			v6.8c0,0.1,0,0.1,0,0.1c0,0-0.1,0.1-0.1,0.1s-0.2,0.1-0.3,0.1c-0.1,0-0.3,0-0.4,0c-0.2,0-0.3,0-0.4,0c-0.1,0-0.2,0-0.3-0.1
			c-0.1,0-0.1-0.1-0.1-0.1c0,0,0-0.1,0-0.1V186c0-0.1,0-0.1,0-0.1c0,0,0.1-0.1,0.1-0.1c0.1,0,0.1-0.1,0.3-0.1c0.1,0,0.2,0,0.4,0
			c0.2,0,0.3,0,0.4,0c0.1,0,0.2,0,0.2,0.1c0.1,0,0.1,0.1,0.1,0.1c0,0,0,0.1,0,0.1v1.3c0.5-0.6,1.1-1.1,1.6-1.4
			c0.5-0.3,1.1-0.4,1.7-0.4c0.7,0,1.2,0.1,1.6,0.3c0.4,0.2,0.8,0.5,1.1,0.9c0.3,0.4,0.5,0.8,0.6,1.3c0.1,0.5,0.2,1.1,0.2,1.8V195.7z
			"/>
		<path id="XMLID_459_" class="st1" d="M178.6,195c0,0.2,0,0.4,0,0.5c0,0.1-0.1,0.2-0.1,0.3c-0.1,0.1-0.1,0.1-0.3,0.2
			c-0.1,0-0.2,0.1-0.4,0.1c-0.1,0-0.3,0.1-0.5,0.1c-0.2,0-0.3,0-0.5,0c-0.5,0-0.9-0.1-1.3-0.2c-0.4-0.1-0.7-0.3-0.9-0.6
			s-0.4-0.6-0.5-1s-0.2-0.9-0.2-1.5v-5.7h-1.4c-0.1,0-0.2-0.1-0.3-0.2c-0.1-0.1-0.1-0.3-0.1-0.6c0-0.1,0-0.3,0-0.3
			c0-0.1,0-0.2,0.1-0.2c0-0.1,0.1-0.1,0.1-0.1c0,0,0.1,0,0.2,0h1.4v-2.3c0,0,0-0.1,0-0.1c0,0,0.1-0.1,0.1-0.1c0.1,0,0.2-0.1,0.3-0.1
			c0.1,0,0.3,0,0.4,0c0.2,0,0.3,0,0.4,0c0.1,0,0.2,0,0.3,0.1c0.1,0,0.1,0.1,0.1,0.1s0,0.1,0,0.1v2.3h2.5c0.1,0,0.1,0,0.2,0
			c0,0,0.1,0.1,0.1,0.1c0,0.1,0.1,0.1,0.1,0.2c0,0.1,0,0.2,0,0.3c0,0.3,0,0.4-0.1,0.6c-0.1,0.1-0.2,0.2-0.3,0.2h-2.5v5.4
			c0,0.7,0.1,1.2,0.3,1.5c0.2,0.3,0.6,0.5,1.1,0.5c0.2,0,0.3,0,0.4,0c0.1,0,0.2-0.1,0.3-0.1c0.1,0,0.2-0.1,0.3-0.1
			c0.1,0,0.1,0,0.2,0c0,0,0.1,0,0.1,0c0,0,0.1,0.1,0.1,0.1c0,0,0,0.1,0,0.2C178.6,194.8,178.6,194.9,178.6,195z"/>
		<path id="XMLID_461_" class="st1" d="M189,190.4c0,0.3-0.1,0.5-0.2,0.6c-0.1,0.1-0.3,0.2-0.5,0.2h-6.4c0,0.5,0.1,1,0.2,1.5
			c0.1,0.4,0.3,0.8,0.5,1.1c0.3,0.3,0.6,0.5,1,0.7c0.4,0.2,0.9,0.2,1.5,0.2c0.5,0,0.9,0,1.2-0.1c0.4-0.1,0.7-0.2,0.9-0.3
			c0.3-0.1,0.5-0.2,0.7-0.3c0.2-0.1,0.3-0.1,0.4-0.1c0.1,0,0.1,0,0.1,0c0,0,0.1,0.1,0.1,0.1c0,0,0,0.1,0,0.2c0,0.1,0,0.2,0,0.3
			c0,0.1,0,0.2,0,0.2c0,0.1,0,0.1,0,0.2c0,0.1,0,0.1-0.1,0.1c0,0-0.1,0.1-0.1,0.1c0,0-0.2,0.1-0.4,0.2c-0.2,0.1-0.4,0.2-0.8,0.3
			c-0.3,0.1-0.7,0.2-1.1,0.2c-0.4,0.1-0.8,0.1-1.3,0.1c-0.8,0-1.5-0.1-2.1-0.3s-1.1-0.6-1.5-1c-0.4-0.4-0.7-1-0.9-1.7
			c-0.2-0.7-0.3-1.4-0.3-2.3c0-0.8,0.1-1.6,0.3-2.3c0.2-0.7,0.5-1.2,0.9-1.7c0.4-0.5,0.9-0.8,1.5-1.1c0.6-0.2,1.2-0.4,1.9-0.4
			c0.8,0,1.4,0.1,2,0.4c0.5,0.2,1,0.6,1.3,1c0.3,0.4,0.6,0.9,0.8,1.5c0.2,0.6,0.2,1.2,0.2,1.8V190.4z M187.2,189.9
			c0-0.9-0.2-1.7-0.6-2.2c-0.4-0.5-1.1-0.8-2-0.8c-0.4,0-0.8,0.1-1.2,0.2c-0.3,0.2-0.6,0.4-0.8,0.7c-0.2,0.3-0.4,0.6-0.5,1
			c-0.1,0.4-0.2,0.7-0.2,1.1H187.2z"/>
		<path id="XMLID_464_" class="st1" d="M194.1,194.8c0,0.5-0.1,0.9-0.3,1c-0.2,0.2-0.5,0.3-0.9,0.3c-0.4,0-0.7-0.1-0.9-0.2
			c-0.2-0.2-0.2-0.5-0.2-1c0-0.5,0.1-0.9,0.3-1c0.2-0.2,0.5-0.3,0.9-0.3c0.4,0,0.7,0.1,0.9,0.2C194,194,194.1,194.3,194.1,194.8z"/>
	</g>
	<g id="XMLID_52_">
		<linearGradient id="XMLID_16_" gradientUnits="userSpaceOnUse" x1="71.3847" y1="84.2553" x2="132.6532" y2="84.2553">
			<stop  offset="0" style="stop-color:#FFED00"/>
			<stop  offset="0.25" style="stop-color:#C7D64F"/>
			<stop  offset="0.8989" style="stop-color:#3FB498"/>
		</linearGradient>
		<path id="XMLID_62_" class="st2" d="M128.6,110.9c10.9-20.2-3.7-50.2-3.7-50.2l-5.5,5.4c0,0-12.2-19.5-30.4-23.5
			c0,0,4.1,8.5,0,18.4C84.8,70.8,69.6,84,71.6,97.1c2,13.1,9.9,26,27.5,28.3c0,0,0.5,0.1,1.4,0.3c-24.3-21.3,0.6-49.7,0.6-49.7
			s-3.3,14.1,3.1,15.8c6.4,1.7,9.1-4.4,9.1-4.4s4.4,7.1,3.1,18.8c-1.3,11.7-10,18.7-10,18.7l1.1,1.2
			C113.7,125.4,122.4,122.3,128.6,110.9z"/>
		<linearGradient id="XMLID_17_" gradientUnits="userSpaceOnUse" x1="136.443" y1="73.8748" x2="159.6885" y2="73.8748">
			<stop  offset="5.674245e-02" style="stop-color:#3FB498"/>
			<stop  offset="0.5384" style="stop-color:#009ACB"/>
		</linearGradient>
		<path id="XMLID_78_" class="st3" d="M138.6,85.1c0,0,7.2-2.1,11.8-7.5l3.7,3.7l5.5-18.6L140.8,68l4,4.2c0,0-4.9,4.6-8.3,5.4
			L138.6,85.1z"/>
		<linearGradient id="XMLID_18_" gradientUnits="userSpaceOnUse" x1="136.9567" y1="90.2443" x2="178.3105" y2="90.2443">
			<stop  offset="0.1396" style="stop-color:#3FB498"/>
			<stop  offset="0.6841" style="stop-color:#009ACB"/>
		</linearGradient>
		<path id="XMLID_79_" class="st4" d="M168.9,90l4.1,3.7l5.3-19.9l-19.5,6l4,4.4c0,0-13.7,11-25.2,12.8c0,0,0.9,3.7-0.6,9.5
			C137,106.6,158.7,101.5,168.9,90z"/>
		<linearGradient id="XMLID_19_" gradientUnits="userSpaceOnUse" x1="119.8757" y1="104.4011" x2="195.8774" y2="104.4011">
			<stop  offset="6.496223e-02" style="stop-color:#3FB498"/>
			<stop  offset="0.2874" style="stop-color:#009ACB"/>
			<stop  offset="1" style="stop-color:#0069B4"/>
		</linearGradient>
		<path id="XMLID_80_" class="st5" d="M177.5,90.2l4.8,3.8c0,0-25.2,26.7-52.7,23.9c0,0-7.3,8.3-9.8,9.7c0,0,20.1,2.8,41.7-8.9
			c22.3-12.1,26.7-21.1,26.7-21.1l5.1,3.1l2.4-19.8L177.5,90.2z"/>
	</g>
</g>
</svg>
