<?xml version="1.0" encoding="utf-8"?>
<!-- Generator: Adobe Illustrator 19.0.0, SVG Export Plug-In . SVG Version: 6.00 Build 0)  -->
<svg version="1.1" id="Capa_1" xmlns="http://www.w3.org/2000/svg" xmlns:xlink="http://www.w3.org/1999/xlink" x="0px" y="0px"
	 viewBox="0 0 223 78" style="enable-background:new 0 0 223 78;" xml:space="preserve">
<style type="text/css">
	.st0{fill:#FFFFFF;}
</style>
<g id="XMLID_66_">
	<path id="XMLID_67_" class="st0" d="M15.1,23.1c1.3,0,2.5-0.3,3.6-0.9v3.5c-1.2,0.4-2.3,0.6-3.6,0.6c-2.9,0-5.5-1-7.6-3.1
		s-3.1-4.6-3.1-7.6s1-5.5,3.1-7.6s4.6-3.1,7.6-3.1c1.2,0,2.4,0.2,3.6,0.6V9c-1.1-0.6-2.3-0.9-3.6-0.9c-2.1,0-3.8,0.7-5.3,2.2
		c-1.5,1.5-2.2,3.2-2.2,5.3s0.7,3.8,2.2,5.3S13,23.1,15.1,23.1z"/>
	<path id="XMLID_69_" class="st0" d="M37.4,5.1v21h-3.2v-4.9H27L24,26.1h-3.8l13.3-21H37.4z M29.1,18h5.1V9.9L29.1,18z"/>
	<path id="XMLID_72_" class="st0" d="M44.1,5.1v17.8h7.5v3.2H40.9v-21H44.1z"/>
	<path id="XMLID_74_" class="st0" d="M57.4,26.1h-3.2V5.1h3.2V26.1z"/>
	<path id="XMLID_76_" class="st0" d="M60.8,26.1v-21h5.5c2.9,0,5.4,1,7.4,3.1c2,2.1,3.1,4.5,3.1,7.4c0,2.9-1,5.3-3.1,7.4
		c-2.1,2.1-4.5,3.1-7.4,3.1H60.8z M64,22.9h2.3c2,0,3.7-0.7,5.2-2.2c1.4-1.4,2.1-3.1,2.1-5.2c0-2-0.7-3.7-2.1-5.2
		C70,9,68.3,8.3,66.3,8.3H64V22.9z"/>
	<path id="XMLID_79_" class="st0" d="M92.2,5.1v21h-3.2v-4.9h-7.1l-3.1,4.9h-3.8l13.3-21H92.2z M83.9,18h5.1V9.9L83.9,18z"/>
	<path id="XMLID_82_" class="st0" d="M95.8,26.1v-21h5.5c2.9,0,5.4,1,7.4,3.1c2,2.1,3.1,4.5,3.1,7.4c0,2.9-1,5.3-3.1,7.4
		c-2.1,2.1-4.5,3.1-7.4,3.1H95.8z M98.9,22.9h2.3c2,0,3.7-0.7,5.2-2.2c1.4-1.4,2.1-3.1,2.1-5.2c0-2-0.7-3.7-2.1-5.2
		c-1.4-1.4-3.2-2.2-5.2-2.2h-2.3V22.9z"/>
	<path id="XMLID_85_" class="st0" d="M121.8,26.1v-21h5.5c2.9,0,5.4,1,7.4,3.1c2,2.1,3.1,4.5,3.1,7.4c0,2.9-1,5.3-3.1,7.4
		c-2.1,2.1-4.5,3.1-7.4,3.1H121.8z M124.9,22.9h2.3c2,0,3.7-0.7,5.2-2.2c1.4-1.4,2.1-3.1,2.1-5.2c0-2-0.7-3.7-2.1-5.2
		c-1.4-1.4-3.2-2.2-5.2-2.2h-2.3V22.9z"/>
	<path id="XMLID_88_" class="st0" d="M151.1,5.1v3.2h-7.5V14h5.8v3.2h-5.8v5.7h7.5v3.2h-10.7v-21H151.1z"/>
	<path id="XMLID_90_" class="st0" d="M164.2,5.1V21l9.4-15.9h3.7l-12.3,21H161v-21H164.2z"/>
	<path id="XMLID_92_" class="st0" d="M182.4,26.1h-3.2V5.1h3.2V26.1z"/>
	<path id="XMLID_94_" class="st0" d="M185.8,26.1v-21h5.5c2.9,0,5.4,1,7.4,3.1c2,2.1,3.1,4.5,3.1,7.4c0,2.9-1,5.3-3.1,7.4
		c-2.1,2.1-4.5,3.1-7.4,3.1H185.8z M189,22.9h2.3c2,0,3.7-0.7,5.2-2.2c1.4-1.4,2.1-3.1,2.1-5.2c0-2-0.7-3.7-2.1-5.2
		c-1.4-1.4-3.2-2.2-5.2-2.2H189V22.9z"/>
	<path id="XMLID_97_" class="st0" d="M217.3,5.1v21h-3.2v-4.9h-7.1l-3.1,4.9h-3.8l13.3-21H217.3z M209,18h5.1V9.9L209,18z"/>
	<path id="XMLID_100_" class="st0" d="M68.3,47.1c1.3,0,2.5-0.3,3.6-0.9v3.5c-1.2,0.4-2.3,0.6-3.6,0.6c-2.9,0-5.5-1-7.6-3.1
		s-3.1-4.6-3.1-7.6s1-5.5,3.1-7.6s4.6-3.1,7.6-3.1c1.2,0,2.4,0.2,3.6,0.6V33c-1.1-0.6-2.3-0.9-3.6-0.9c-2.1,0-3.8,0.7-5.3,2.2
		c-1.5,1.5-2.2,3.2-2.2,5.3s0.7,3.8,2.2,5.3S66.2,47.1,68.3,47.1z"/>
	<path id="XMLID_102_" class="st0" d="M90.6,29.1v21h-3.2v-4.9h-7.1l-3.1,4.9h-3.8l13.3-21H90.6z M82.3,42h5.1v-8.1L82.3,42z"/>
	<path id="XMLID_105_" class="st0" d="M97.3,29.1v17.8h7.5v3.2H94.2v-21H97.3z"/>
	<path id="XMLID_107_" class="st0" d="M110.6,50.1h-3.2V29.1h3.2V50.1z"/>
	<path id="XMLID_109_" class="st0" d="M114,50.1v-21h5.5c2.9,0,5.4,1,7.4,3.1c2,2.1,3.1,4.5,3.1,7.4c0,2.9-1,5.3-3.1,7.4
		c-2.1,2.1-4.5,3.1-7.4,3.1H114z M117.2,46.9h2.3c2,0,3.7-0.7,5.2-2.2c1.4-1.4,2.1-3.1,2.1-5.2c0-2-0.7-3.7-2.1-5.2
		c-1.4-1.4-3.2-2.2-5.2-2.2h-2.3V46.9z"/>
	<path id="XMLID_112_" class="st0" d="M145.5,29.1v21h-3.2v-4.9h-7.1l-3.1,4.9h-3.8l13.3-21H145.5z M137.2,42h5.1v-8.1L137.2,42z"/>
	<path id="XMLID_115_" class="st0" d="M149,50.1v-21h5.5c2.9,0,5.4,1,7.4,3.1c2,2.1,3.1,4.5,3.1,7.4c0,2.9-1,5.3-3.1,7.4
		c-2.1,2.1-4.5,3.1-7.4,3.1H149z M152.1,46.9h2.3c2,0,3.7-0.7,5.2-2.2c1.4-1.4,2.1-3.1,2.1-5.2c0-2-0.7-3.7-2.1-5.2
		c-1.4-1.4-3.2-2.2-5.2-2.2h-2.3V46.9z"/>
	<path id="XMLID_118_" class="st0" d="M39.4,74.1h-3.2v-21H44c1.7,0,3.1,0.6,4.3,1.8c1.2,1.2,1.8,2.6,1.8,4.3c0,1.7-0.6,3.1-1.8,4.3
		c-1.2,1.2-2.6,1.8-4.3,1.8h-4.6V74.1z M39.4,62.1H44c0.8,0,1.5-0.3,2-0.8c0.6-0.6,0.8-1.2,0.8-2c0-0.8-0.3-1.5-0.8-2.1
		c-0.6-0.6-1.2-0.8-2-0.8h-4.6V62.1z"/>
	<path id="XMLID_121_" class="st0" d="M67.4,74.1h-3.6l-4.6-8.8h-3.6v8.8h-3.2v-21h7.7c1.7,0,3.1,0.6,4.3,1.8
		c1.2,1.2,1.8,2.6,1.8,4.3c0,1.2-0.3,2.4-1,3.4c-0.7,1-1.6,1.7-2.7,2.2L67.4,74.1z M60.2,62.1c0.8,0,1.5-0.3,2-0.8
		c0.6-0.6,0.8-1.2,0.8-2c0-0.8-0.3-1.5-0.8-2.1c-0.6-0.6-1.2-0.8-2-0.8h-4.6v5.8H60.2z"/>
	<path id="XMLID_124_" class="st0" d="M72.4,74.1h-3.2V53.1h3.2V74.1z"/>
	<path id="XMLID_126_" class="st0" d="M97.5,53.1v21h-3.2V60.8l-5.8,13.3h-3.6l-5.7-13.2v13.2H76v-21h3.3l7.4,17.1l7.5-17.1H97.5z"
		/>
	<path id="XMLID_128_" class="st0" d="M117.2,53.1v21H114v-4.9h-7.1l-3.1,4.9H100l13.3-21H117.2z M108.8,66h5.1v-8.1L108.8,66z"/>
	<path id="XMLID_131_" class="st0" d="M132.1,53.1v3.2h-4.4v17.8h-3.2V56.3H120v-3.2H132.1z"/>
	<path id="XMLID_133_" class="st0" d="M145.6,53.1v3.2h-7.5V62h5.8v3.2h-5.8v5.7h7.5v3.2h-10.7v-21H145.6z"/>
	<path id="XMLID_135_" class="st0" d="M162.9,74.1h-3.6l-4.6-8.8h-3.6v8.8H148v-21h7.7c1.7,0,3.1,0.6,4.3,1.8
		c1.2,1.2,1.8,2.6,1.8,4.3c0,1.2-0.3,2.4-1,3.4c-0.7,1-1.6,1.7-2.7,2.2L162.9,74.1z M155.7,62.1c0.8,0,1.5-0.3,2-0.8
		c0.6-0.6,0.8-1.2,0.8-2c0-0.8-0.3-1.5-0.8-2.1c-0.6-0.6-1.2-0.8-2-0.8h-4.6v5.8H155.7z"/>
	<path id="XMLID_138_" class="st0" d="M186.4,53.1v21h-3.2V60.8l-5.8,13.3h-3.6l-5.7-13.2v13.2h-3.2v-21h3.3l7.4,17.1l7.5-17.1
		H186.4z"/>
</g>
</svg>
