<?xml version="1.0" encoding="utf-8"?>
<!-- Generator: Adobe Illustrator 19.0.0, SVG Export Plug-In . SVG Version: 6.00 Build 0)  -->
<svg version="1.1" id="Capa_1" xmlns="http://www.w3.org/2000/svg" xmlns:xlink="http://www.w3.org/1999/xlink" x="0px" y="0px"
	 viewBox="0 0 210.1 41.4" style="enable-background:new 0 0 210.1 41.4;" xml:space="preserve">
<style type="text/css">
	.st0{fill:#FFFFFF;}
</style>
<g id="XMLID_81_">
	<path id="XMLID_82_" class="st0" d="M20.8,33.4c1.8,0,3.5-0.4,5.1-1.3v5c-1.7,0.6-3.4,0.9-5.1,0.9c-4.3,0-7.9-1.5-10.9-4.5
		c-3-3-4.5-6.7-4.5-10.9s1.5-7.9,4.5-10.9c3-3,6.7-4.5,10.9-4.5c1.8,0,3.5,0.3,5.1,0.9v5c-1.6-0.9-3.3-1.3-5.1-1.3
		c-3,0-5.5,1.1-7.7,3.2C11,17.1,10,19.6,10,22.6c0,3,1.1,5.5,3.2,7.7S17.8,33.4,20.8,33.4z"/>
	<path id="XMLID_84_" class="st0" d="M32.6,33.5c-3-3-4.5-6.7-4.5-10.9s1.5-7.9,4.5-10.9c3-3,6.7-4.5,10.9-4.5s7.9,1.5,10.9,4.5
		c3,3,4.5,6.7,4.5,10.9s-1.5,7.9-4.5,10.9c-3,3-6.7,4.5-10.9,4.5S35.7,36.5,32.6,33.5z M35.9,15c-2.1,2.1-3.2,4.7-3.2,7.7
		c0,3,1.1,5.5,3.2,7.7s4.7,3.2,7.7,3.2s5.5-1.1,7.7-3.2s3.2-4.7,3.2-7.7c0-3-1.1-5.5-3.2-7.7s-4.7-3.2-7.7-3.2S38,12.8,35.9,15z"/>
	<path id="XMLID_87_" class="st0" d="M84.6,7.5v30.2h-4.8L66.8,16.1v21.6h-4.6V7.5H67L80,29.1V7.5H84.6z"/>
	<path id="XMLID_89_" class="st0" d="M105.7,7.5v4.6h-6.4v25.7h-4.6V12.1h-6.4V7.5H105.7z"/>
	<path id="XMLID_91_" class="st0" d="M128.3,7.5v30.2h-4.6v-7.1h-10.3l-4.5,7.1h-5.4l19.1-30.2H128.3z M116.3,26.1h7.4V14.4
		L116.3,26.1z"/>
	<path id="XMLID_94_" class="st0" d="M147.6,33.4c1.8,0,3.5-0.4,5.1-1.3v5c-1.7,0.6-3.4,0.9-5.1,0.9c-4.3,0-7.9-1.5-10.9-4.5
		s-4.5-6.7-4.5-10.9s1.5-7.9,4.5-10.9s6.7-4.5,10.9-4.5c1.8,0,3.5,0.3,5.1,0.9v5c-1.6-0.9-3.3-1.3-5.1-1.3c-3,0-5.5,1.1-7.7,3.2
		c-2.1,2.1-3.2,4.7-3.2,7.7c0,3,1.1,5.5,3.2,7.7C142.1,32.4,144.6,33.4,147.6,33.4z"/>
	<path id="XMLID_96_" class="st0" d="M172.9,7.5v4.6h-6.4v25.7h-4.6V12.1h-6.4V7.5H172.9z"/>
	<path id="XMLID_98_" class="st0" d="M176.6,33.5c-3-3-4.5-6.7-4.5-10.9s1.5-7.9,4.5-10.9s6.7-4.5,10.9-4.5s7.9,1.5,10.9,4.5
		s4.5,6.7,4.5,10.9s-1.5,7.9-4.5,10.9s-6.7,4.5-10.9,4.5S179.6,36.5,176.6,33.5z M179.9,15c-2.1,2.1-3.2,4.7-3.2,7.7
		c0,3,1.1,5.5,3.2,7.7c2.1,2.1,4.7,3.2,7.7,3.2s5.5-1.1,7.7-3.2c2.1-2.1,3.2-4.7,3.2-7.7c0-3-1.1-5.5-3.2-7.7
		c-2.1-2.1-4.7-3.2-7.7-3.2S182,12.8,179.9,15z"/>
</g>
</svg>
